M48
; DRILL file {KiCad 5.1.9+dfsg1-1~bpo10+1} date Wed Feb 16 02:45:35 2022
; FORMAT={2:4/ absolute / inch / suppress leading zeros}
; #@! TF.CreationDate,2022-02-16T02:45:35+08:00
; #@! TF.GenerationSoftware,Kicad,Pcbnew,5.1.9+dfsg1-1~bpo10+1
FMAT,2
INCH,TZ
T1C0.0480
T2C0.0559
T3C0.0563
%
G90
G05
T1
X56654Y-25591
X56654Y-31299
X56654Y-37008
X56654Y-42717
X56654Y-48425
X56654Y-54134
X56654Y-59843
T2
X56654Y-26811
X56654Y-32520
X56654Y-38228
X56654Y-43937
X56654Y-49646
X56654Y-55354
X56654Y-61063
T3
X56654Y-30079
X56654Y-35787
X56654Y-41496
X56654Y-47205
X56654Y-52913
X56654Y-58622
X56654Y-64331
T0
M30
