%TF.GenerationSoftware,KiCad,Pcbnew,5.1.9+dfsg1-1~bpo10+1*%
%TF.CreationDate,2022-02-16T02:45:33+08:00*%
%TF.ProjectId,MiniMult  1.1 - Control,4d696e69-4d75-46c7-9420-20312e31202d,rev?*%
%TF.SameCoordinates,Original*%
%TF.FileFunction,Copper,L1,Top*%
%TF.FilePolarity,Positive*%
%FSLAX46Y46*%
G04 Gerber Fmt 4.6, Leading zero omitted, Abs format (unit mm)*
G04 Created by KiCad (PCBNEW 5.1.9+dfsg1-1~bpo10+1) date 2022-02-16 02:45:33*
%MOMM*%
%LPD*%
G01*
G04 APERTURE LIST*
%TA.AperFunction,ComponentPad*%
%ADD10R,1.930000X1.830000*%
%TD*%
%TA.AperFunction,ComponentPad*%
%ADD11C,2.130000*%
%TD*%
%TA.AperFunction,Conductor*%
%ADD12C,0.750000*%
%TD*%
%TA.AperFunction,Conductor*%
%ADD13C,0.254000*%
%TD*%
%TA.AperFunction,Conductor*%
%ADD14C,0.100000*%
%TD*%
G04 APERTURE END LIST*
D10*
%TO.P,J1,S*%
%TO.N,GND*%
X143900000Y-65000000D03*
D11*
%TO.P,J1,TN*%
%TO.N,N/C*%
X143900000Y-68100000D03*
%TO.P,J1,T*%
%TO.N,Net-(J1-PadT)*%
X143900000Y-76400000D03*
%TD*%
%TO.P,J2,T*%
%TO.N,Net-(J1-PadT)*%
X143900000Y-90900000D03*
%TO.P,J2,TN*%
%TO.N,N/C*%
X143900000Y-82600000D03*
D10*
%TO.P,J2,S*%
%TO.N,GND*%
X143900000Y-79500000D03*
%TD*%
%TO.P,J3,S*%
%TO.N,GND*%
X143900000Y-94000000D03*
D11*
%TO.P,J3,TN*%
%TO.N,N/C*%
X143900000Y-97100000D03*
%TO.P,J3,T*%
%TO.N,Net-(J1-PadT)*%
X143900000Y-105400000D03*
%TD*%
%TO.P,J4,T*%
%TO.N,Net-(J4-PadT)*%
X143900000Y-119900000D03*
%TO.P,J4,TN*%
%TO.N,N/C*%
X143900000Y-111600000D03*
D10*
%TO.P,J4,S*%
%TO.N,GND*%
X143900000Y-108500000D03*
%TD*%
%TO.P,J5,S*%
%TO.N,GND*%
X143900000Y-123000000D03*
D11*
%TO.P,J5,TN*%
%TO.N,N/C*%
X143900000Y-126100000D03*
%TO.P,J5,T*%
%TO.N,Net-(J4-PadT)*%
X143900000Y-134400000D03*
%TD*%
%TO.P,J6,T*%
%TO.N,Net-(J4-PadT)*%
X143900000Y-148900000D03*
%TO.P,J6,TN*%
%TO.N,N/C*%
X143900000Y-140600000D03*
D10*
%TO.P,J6,S*%
%TO.N,GND*%
X143900000Y-137500000D03*
%TD*%
%TO.P,J7,S*%
%TO.N,GND*%
X143900000Y-152000000D03*
D11*
%TO.P,J7,TN*%
%TO.N,N/C*%
X143900000Y-155100000D03*
%TO.P,J7,T*%
%TO.N,Net-(J4-PadT)*%
X143900000Y-163400000D03*
%TD*%
D12*
%TO.N,Net-(J1-PadT)*%
X143900000Y-76400000D02*
X147000000Y-79500000D01*
X143900000Y-105400000D02*
X146900000Y-102400000D01*
X147000000Y-87800000D02*
X147000000Y-87700000D01*
X143900000Y-90900000D02*
X147000000Y-87800000D01*
X147000000Y-79500000D02*
X147000000Y-87700000D01*
X147000000Y-87700000D02*
X147000000Y-102400000D01*
%TO.N,Net-(J4-PadT)*%
X143900000Y-119900000D02*
X147000000Y-123000000D01*
X147000000Y-160300000D02*
X143900000Y-163400000D01*
X146700000Y-131600000D02*
X147000000Y-131600000D01*
X143900000Y-134400000D02*
X146700000Y-131600000D01*
X147000000Y-123000000D02*
X147000000Y-131600000D01*
X143900000Y-148900000D02*
X147000000Y-145800000D01*
X147000000Y-145800000D02*
X147000000Y-145000000D01*
X147000000Y-131600000D02*
X147000000Y-145000000D01*
X147000000Y-145000000D02*
X147000000Y-160300000D01*
%TD*%
D13*
%TO.N,GND*%
X142404463Y-63730506D02*
X142345498Y-63840820D01*
X142309188Y-63960518D01*
X142296928Y-64085000D01*
X142300000Y-64714250D01*
X142458750Y-64873000D01*
X143773000Y-64873000D01*
X143773000Y-64853000D01*
X144027000Y-64853000D01*
X144027000Y-64873000D01*
X145341250Y-64873000D01*
X145500000Y-64714250D01*
X145503072Y-64085000D01*
X145490812Y-63960518D01*
X145454502Y-63840820D01*
X145395537Y-63730506D01*
X145337674Y-63660000D01*
X148140000Y-63660000D01*
X148140001Y-164840000D01*
X144804808Y-164840000D01*
X144983687Y-164720477D01*
X145220477Y-164483687D01*
X145406521Y-164205252D01*
X145534670Y-163895872D01*
X145600000Y-163567435D01*
X145600000Y-163232565D01*
X145582710Y-163145645D01*
X147679094Y-161049261D01*
X147717633Y-161017633D01*
X147843847Y-160863840D01*
X147937632Y-160688380D01*
X147995385Y-160497994D01*
X148010000Y-160349608D01*
X148010000Y-160349606D01*
X148014886Y-160300001D01*
X148010000Y-160250396D01*
X148010000Y-145849606D01*
X148014886Y-145800001D01*
X148010000Y-145750396D01*
X148010000Y-131649608D01*
X148014886Y-131600000D01*
X148010000Y-131550392D01*
X148010000Y-123049604D01*
X148014886Y-122999999D01*
X148002377Y-122873000D01*
X147995385Y-122802006D01*
X147937632Y-122611620D01*
X147843847Y-122436160D01*
X147717633Y-122282367D01*
X147679094Y-122250739D01*
X145582710Y-120154355D01*
X145600000Y-120067435D01*
X145600000Y-119732565D01*
X145534670Y-119404128D01*
X145406521Y-119094748D01*
X145220477Y-118816313D01*
X144983687Y-118579523D01*
X144705252Y-118393479D01*
X144395872Y-118265330D01*
X144067435Y-118200000D01*
X143732565Y-118200000D01*
X143404128Y-118265330D01*
X143094748Y-118393479D01*
X142816313Y-118579523D01*
X142579523Y-118816313D01*
X142393479Y-119094748D01*
X142265330Y-119404128D01*
X142200000Y-119732565D01*
X142200000Y-120067435D01*
X142265330Y-120395872D01*
X142393479Y-120705252D01*
X142579523Y-120983687D01*
X142816313Y-121220477D01*
X143094748Y-121406521D01*
X143195140Y-121448105D01*
X142935000Y-121446928D01*
X142810518Y-121459188D01*
X142690820Y-121495498D01*
X142580506Y-121554463D01*
X142483815Y-121633815D01*
X142404463Y-121730506D01*
X142345498Y-121840820D01*
X142309188Y-121960518D01*
X142296928Y-122085000D01*
X142300000Y-122714250D01*
X142458750Y-122873000D01*
X143773000Y-122873000D01*
X143773000Y-122853000D01*
X144027000Y-122853000D01*
X144027000Y-122873000D01*
X145341250Y-122873000D01*
X145392948Y-122821303D01*
X145990000Y-123418355D01*
X145990001Y-130876102D01*
X145982367Y-130882367D01*
X145950744Y-130920900D01*
X144154355Y-132717289D01*
X144067435Y-132700000D01*
X143732565Y-132700000D01*
X143404128Y-132765330D01*
X143094748Y-132893479D01*
X142816313Y-133079523D01*
X142579523Y-133316313D01*
X142393479Y-133594748D01*
X142265330Y-133904128D01*
X142200000Y-134232565D01*
X142200000Y-134567435D01*
X142265330Y-134895872D01*
X142393479Y-135205252D01*
X142579523Y-135483687D01*
X142816313Y-135720477D01*
X143094748Y-135906521D01*
X143195140Y-135948105D01*
X142935000Y-135946928D01*
X142810518Y-135959188D01*
X142690820Y-135995498D01*
X142580506Y-136054463D01*
X142483815Y-136133815D01*
X142404463Y-136230506D01*
X142345498Y-136340820D01*
X142309188Y-136460518D01*
X142296928Y-136585000D01*
X142300000Y-137214250D01*
X142458750Y-137373000D01*
X143773000Y-137373000D01*
X143773000Y-137353000D01*
X144027000Y-137353000D01*
X144027000Y-137373000D01*
X145341250Y-137373000D01*
X145500000Y-137214250D01*
X145503072Y-136585000D01*
X145490812Y-136460518D01*
X145454502Y-136340820D01*
X145395537Y-136230506D01*
X145316185Y-136133815D01*
X145219494Y-136054463D01*
X145109180Y-135995498D01*
X144989482Y-135959188D01*
X144865000Y-135946928D01*
X144604860Y-135948105D01*
X144705252Y-135906521D01*
X144983687Y-135720477D01*
X145220477Y-135483687D01*
X145406521Y-135205252D01*
X145534670Y-134895872D01*
X145600000Y-134567435D01*
X145600000Y-134232565D01*
X145582711Y-134145645D01*
X145990000Y-133738355D01*
X145990001Y-144950383D01*
X145990000Y-144950393D01*
X145990000Y-145381645D01*
X144154355Y-147217290D01*
X144067435Y-147200000D01*
X143732565Y-147200000D01*
X143404128Y-147265330D01*
X143094748Y-147393479D01*
X142816313Y-147579523D01*
X142579523Y-147816313D01*
X142393479Y-148094748D01*
X142265330Y-148404128D01*
X142200000Y-148732565D01*
X142200000Y-149067435D01*
X142265330Y-149395872D01*
X142393479Y-149705252D01*
X142579523Y-149983687D01*
X142816313Y-150220477D01*
X143094748Y-150406521D01*
X143195140Y-150448105D01*
X142935000Y-150446928D01*
X142810518Y-150459188D01*
X142690820Y-150495498D01*
X142580506Y-150554463D01*
X142483815Y-150633815D01*
X142404463Y-150730506D01*
X142345498Y-150840820D01*
X142309188Y-150960518D01*
X142296928Y-151085000D01*
X142300000Y-151714250D01*
X142458750Y-151873000D01*
X143773000Y-151873000D01*
X143773000Y-151853000D01*
X144027000Y-151853000D01*
X144027000Y-151873000D01*
X145341250Y-151873000D01*
X145500000Y-151714250D01*
X145503072Y-151085000D01*
X145490812Y-150960518D01*
X145454502Y-150840820D01*
X145395537Y-150730506D01*
X145316185Y-150633815D01*
X145219494Y-150554463D01*
X145109180Y-150495498D01*
X144989482Y-150459188D01*
X144865000Y-150446928D01*
X144604860Y-150448105D01*
X144705252Y-150406521D01*
X144983687Y-150220477D01*
X145220477Y-149983687D01*
X145406521Y-149705252D01*
X145534670Y-149395872D01*
X145600000Y-149067435D01*
X145600000Y-148732565D01*
X145582710Y-148645645D01*
X145990000Y-148238355D01*
X145990001Y-159881644D01*
X144154355Y-161717290D01*
X144067435Y-161700000D01*
X143732565Y-161700000D01*
X143404128Y-161765330D01*
X143094748Y-161893479D01*
X142816313Y-162079523D01*
X142579523Y-162316313D01*
X142393479Y-162594748D01*
X142265330Y-162904128D01*
X142200000Y-163232565D01*
X142200000Y-163567435D01*
X142265330Y-163895872D01*
X142393479Y-164205252D01*
X142579523Y-164483687D01*
X142816313Y-164720477D01*
X142995192Y-164840000D01*
X139660000Y-164840000D01*
X139660000Y-154932565D01*
X142200000Y-154932565D01*
X142200000Y-155267435D01*
X142265330Y-155595872D01*
X142393479Y-155905252D01*
X142579523Y-156183687D01*
X142816313Y-156420477D01*
X143094748Y-156606521D01*
X143404128Y-156734670D01*
X143732565Y-156800000D01*
X144067435Y-156800000D01*
X144395872Y-156734670D01*
X144705252Y-156606521D01*
X144983687Y-156420477D01*
X145220477Y-156183687D01*
X145406521Y-155905252D01*
X145534670Y-155595872D01*
X145600000Y-155267435D01*
X145600000Y-154932565D01*
X145534670Y-154604128D01*
X145406521Y-154294748D01*
X145220477Y-154016313D01*
X144983687Y-153779523D01*
X144705252Y-153593479D01*
X144604860Y-153551895D01*
X144865000Y-153553072D01*
X144989482Y-153540812D01*
X145109180Y-153504502D01*
X145219494Y-153445537D01*
X145316185Y-153366185D01*
X145395537Y-153269494D01*
X145454502Y-153159180D01*
X145490812Y-153039482D01*
X145503072Y-152915000D01*
X145500000Y-152285750D01*
X145341250Y-152127000D01*
X144027000Y-152127000D01*
X144027000Y-152147000D01*
X143773000Y-152147000D01*
X143773000Y-152127000D01*
X142458750Y-152127000D01*
X142300000Y-152285750D01*
X142296928Y-152915000D01*
X142309188Y-153039482D01*
X142345498Y-153159180D01*
X142404463Y-153269494D01*
X142483815Y-153366185D01*
X142580506Y-153445537D01*
X142690820Y-153504502D01*
X142810518Y-153540812D01*
X142935000Y-153553072D01*
X143195140Y-153551895D01*
X143094748Y-153593479D01*
X142816313Y-153779523D01*
X142579523Y-154016313D01*
X142393479Y-154294748D01*
X142265330Y-154604128D01*
X142200000Y-154932565D01*
X139660000Y-154932565D01*
X139660000Y-140432565D01*
X142200000Y-140432565D01*
X142200000Y-140767435D01*
X142265330Y-141095872D01*
X142393479Y-141405252D01*
X142579523Y-141683687D01*
X142816313Y-141920477D01*
X143094748Y-142106521D01*
X143404128Y-142234670D01*
X143732565Y-142300000D01*
X144067435Y-142300000D01*
X144395872Y-142234670D01*
X144705252Y-142106521D01*
X144983687Y-141920477D01*
X145220477Y-141683687D01*
X145406521Y-141405252D01*
X145534670Y-141095872D01*
X145600000Y-140767435D01*
X145600000Y-140432565D01*
X145534670Y-140104128D01*
X145406521Y-139794748D01*
X145220477Y-139516313D01*
X144983687Y-139279523D01*
X144705252Y-139093479D01*
X144604860Y-139051895D01*
X144865000Y-139053072D01*
X144989482Y-139040812D01*
X145109180Y-139004502D01*
X145219494Y-138945537D01*
X145316185Y-138866185D01*
X145395537Y-138769494D01*
X145454502Y-138659180D01*
X145490812Y-138539482D01*
X145503072Y-138415000D01*
X145500000Y-137785750D01*
X145341250Y-137627000D01*
X144027000Y-137627000D01*
X144027000Y-137647000D01*
X143773000Y-137647000D01*
X143773000Y-137627000D01*
X142458750Y-137627000D01*
X142300000Y-137785750D01*
X142296928Y-138415000D01*
X142309188Y-138539482D01*
X142345498Y-138659180D01*
X142404463Y-138769494D01*
X142483815Y-138866185D01*
X142580506Y-138945537D01*
X142690820Y-139004502D01*
X142810518Y-139040812D01*
X142935000Y-139053072D01*
X143195140Y-139051895D01*
X143094748Y-139093479D01*
X142816313Y-139279523D01*
X142579523Y-139516313D01*
X142393479Y-139794748D01*
X142265330Y-140104128D01*
X142200000Y-140432565D01*
X139660000Y-140432565D01*
X139660000Y-125932565D01*
X142200000Y-125932565D01*
X142200000Y-126267435D01*
X142265330Y-126595872D01*
X142393479Y-126905252D01*
X142579523Y-127183687D01*
X142816313Y-127420477D01*
X143094748Y-127606521D01*
X143404128Y-127734670D01*
X143732565Y-127800000D01*
X144067435Y-127800000D01*
X144395872Y-127734670D01*
X144705252Y-127606521D01*
X144983687Y-127420477D01*
X145220477Y-127183687D01*
X145406521Y-126905252D01*
X145534670Y-126595872D01*
X145600000Y-126267435D01*
X145600000Y-125932565D01*
X145534670Y-125604128D01*
X145406521Y-125294748D01*
X145220477Y-125016313D01*
X144983687Y-124779523D01*
X144705252Y-124593479D01*
X144604860Y-124551895D01*
X144865000Y-124553072D01*
X144989482Y-124540812D01*
X145109180Y-124504502D01*
X145219494Y-124445537D01*
X145316185Y-124366185D01*
X145395537Y-124269494D01*
X145454502Y-124159180D01*
X145490812Y-124039482D01*
X145503072Y-123915000D01*
X145500000Y-123285750D01*
X145341250Y-123127000D01*
X144027000Y-123127000D01*
X144027000Y-123147000D01*
X143773000Y-123147000D01*
X143773000Y-123127000D01*
X142458750Y-123127000D01*
X142300000Y-123285750D01*
X142296928Y-123915000D01*
X142309188Y-124039482D01*
X142345498Y-124159180D01*
X142404463Y-124269494D01*
X142483815Y-124366185D01*
X142580506Y-124445537D01*
X142690820Y-124504502D01*
X142810518Y-124540812D01*
X142935000Y-124553072D01*
X143195140Y-124551895D01*
X143094748Y-124593479D01*
X142816313Y-124779523D01*
X142579523Y-125016313D01*
X142393479Y-125294748D01*
X142265330Y-125604128D01*
X142200000Y-125932565D01*
X139660000Y-125932565D01*
X139660000Y-111432565D01*
X142200000Y-111432565D01*
X142200000Y-111767435D01*
X142265330Y-112095872D01*
X142393479Y-112405252D01*
X142579523Y-112683687D01*
X142816313Y-112920477D01*
X143094748Y-113106521D01*
X143404128Y-113234670D01*
X143732565Y-113300000D01*
X144067435Y-113300000D01*
X144395872Y-113234670D01*
X144705252Y-113106521D01*
X144983687Y-112920477D01*
X145220477Y-112683687D01*
X145406521Y-112405252D01*
X145534670Y-112095872D01*
X145600000Y-111767435D01*
X145600000Y-111432565D01*
X145534670Y-111104128D01*
X145406521Y-110794748D01*
X145220477Y-110516313D01*
X144983687Y-110279523D01*
X144705252Y-110093479D01*
X144604860Y-110051895D01*
X144865000Y-110053072D01*
X144989482Y-110040812D01*
X145109180Y-110004502D01*
X145219494Y-109945537D01*
X145316185Y-109866185D01*
X145395537Y-109769494D01*
X145454502Y-109659180D01*
X145490812Y-109539482D01*
X145503072Y-109415000D01*
X145500000Y-108785750D01*
X145341250Y-108627000D01*
X144027000Y-108627000D01*
X144027000Y-108647000D01*
X143773000Y-108647000D01*
X143773000Y-108627000D01*
X142458750Y-108627000D01*
X142300000Y-108785750D01*
X142296928Y-109415000D01*
X142309188Y-109539482D01*
X142345498Y-109659180D01*
X142404463Y-109769494D01*
X142483815Y-109866185D01*
X142580506Y-109945537D01*
X142690820Y-110004502D01*
X142810518Y-110040812D01*
X142935000Y-110053072D01*
X143195140Y-110051895D01*
X143094748Y-110093479D01*
X142816313Y-110279523D01*
X142579523Y-110516313D01*
X142393479Y-110794748D01*
X142265330Y-111104128D01*
X142200000Y-111432565D01*
X139660000Y-111432565D01*
X139660000Y-96932565D01*
X142200000Y-96932565D01*
X142200000Y-97267435D01*
X142265330Y-97595872D01*
X142393479Y-97905252D01*
X142579523Y-98183687D01*
X142816313Y-98420477D01*
X143094748Y-98606521D01*
X143404128Y-98734670D01*
X143732565Y-98800000D01*
X144067435Y-98800000D01*
X144395872Y-98734670D01*
X144705252Y-98606521D01*
X144983687Y-98420477D01*
X145220477Y-98183687D01*
X145406521Y-97905252D01*
X145534670Y-97595872D01*
X145600000Y-97267435D01*
X145600000Y-96932565D01*
X145534670Y-96604128D01*
X145406521Y-96294748D01*
X145220477Y-96016313D01*
X144983687Y-95779523D01*
X144705252Y-95593479D01*
X144604860Y-95551895D01*
X144865000Y-95553072D01*
X144989482Y-95540812D01*
X145109180Y-95504502D01*
X145219494Y-95445537D01*
X145316185Y-95366185D01*
X145395537Y-95269494D01*
X145454502Y-95159180D01*
X145490812Y-95039482D01*
X145503072Y-94915000D01*
X145500000Y-94285750D01*
X145341250Y-94127000D01*
X144027000Y-94127000D01*
X144027000Y-94147000D01*
X143773000Y-94147000D01*
X143773000Y-94127000D01*
X142458750Y-94127000D01*
X142300000Y-94285750D01*
X142296928Y-94915000D01*
X142309188Y-95039482D01*
X142345498Y-95159180D01*
X142404463Y-95269494D01*
X142483815Y-95366185D01*
X142580506Y-95445537D01*
X142690820Y-95504502D01*
X142810518Y-95540812D01*
X142935000Y-95553072D01*
X143195140Y-95551895D01*
X143094748Y-95593479D01*
X142816313Y-95779523D01*
X142579523Y-96016313D01*
X142393479Y-96294748D01*
X142265330Y-96604128D01*
X142200000Y-96932565D01*
X139660000Y-96932565D01*
X139660000Y-82432565D01*
X142200000Y-82432565D01*
X142200000Y-82767435D01*
X142265330Y-83095872D01*
X142393479Y-83405252D01*
X142579523Y-83683687D01*
X142816313Y-83920477D01*
X143094748Y-84106521D01*
X143404128Y-84234670D01*
X143732565Y-84300000D01*
X144067435Y-84300000D01*
X144395872Y-84234670D01*
X144705252Y-84106521D01*
X144983687Y-83920477D01*
X145220477Y-83683687D01*
X145406521Y-83405252D01*
X145534670Y-83095872D01*
X145600000Y-82767435D01*
X145600000Y-82432565D01*
X145534670Y-82104128D01*
X145406521Y-81794748D01*
X145220477Y-81516313D01*
X144983687Y-81279523D01*
X144705252Y-81093479D01*
X144604860Y-81051895D01*
X144865000Y-81053072D01*
X144989482Y-81040812D01*
X145109180Y-81004502D01*
X145219494Y-80945537D01*
X145316185Y-80866185D01*
X145395537Y-80769494D01*
X145454502Y-80659180D01*
X145490812Y-80539482D01*
X145503072Y-80415000D01*
X145500000Y-79785750D01*
X145341250Y-79627000D01*
X144027000Y-79627000D01*
X144027000Y-79647000D01*
X143773000Y-79647000D01*
X143773000Y-79627000D01*
X142458750Y-79627000D01*
X142300000Y-79785750D01*
X142296928Y-80415000D01*
X142309188Y-80539482D01*
X142345498Y-80659180D01*
X142404463Y-80769494D01*
X142483815Y-80866185D01*
X142580506Y-80945537D01*
X142690820Y-81004502D01*
X142810518Y-81040812D01*
X142935000Y-81053072D01*
X143195140Y-81051895D01*
X143094748Y-81093479D01*
X142816313Y-81279523D01*
X142579523Y-81516313D01*
X142393479Y-81794748D01*
X142265330Y-82104128D01*
X142200000Y-82432565D01*
X139660000Y-82432565D01*
X139660000Y-76232565D01*
X142200000Y-76232565D01*
X142200000Y-76567435D01*
X142265330Y-76895872D01*
X142393479Y-77205252D01*
X142579523Y-77483687D01*
X142816313Y-77720477D01*
X143094748Y-77906521D01*
X143195140Y-77948105D01*
X142935000Y-77946928D01*
X142810518Y-77959188D01*
X142690820Y-77995498D01*
X142580506Y-78054463D01*
X142483815Y-78133815D01*
X142404463Y-78230506D01*
X142345498Y-78340820D01*
X142309188Y-78460518D01*
X142296928Y-78585000D01*
X142300000Y-79214250D01*
X142458750Y-79373000D01*
X143773000Y-79373000D01*
X143773000Y-79353000D01*
X144027000Y-79353000D01*
X144027000Y-79373000D01*
X145341250Y-79373000D01*
X145392948Y-79321303D01*
X145990000Y-79918355D01*
X145990001Y-87381644D01*
X144154355Y-89217290D01*
X144067435Y-89200000D01*
X143732565Y-89200000D01*
X143404128Y-89265330D01*
X143094748Y-89393479D01*
X142816313Y-89579523D01*
X142579523Y-89816313D01*
X142393479Y-90094748D01*
X142265330Y-90404128D01*
X142200000Y-90732565D01*
X142200000Y-91067435D01*
X142265330Y-91395872D01*
X142393479Y-91705252D01*
X142579523Y-91983687D01*
X142816313Y-92220477D01*
X143094748Y-92406521D01*
X143195140Y-92448105D01*
X142935000Y-92446928D01*
X142810518Y-92459188D01*
X142690820Y-92495498D01*
X142580506Y-92554463D01*
X142483815Y-92633815D01*
X142404463Y-92730506D01*
X142345498Y-92840820D01*
X142309188Y-92960518D01*
X142296928Y-93085000D01*
X142300000Y-93714250D01*
X142458750Y-93873000D01*
X143773000Y-93873000D01*
X143773000Y-93853000D01*
X144027000Y-93853000D01*
X144027000Y-93873000D01*
X145341250Y-93873000D01*
X145500000Y-93714250D01*
X145503072Y-93085000D01*
X145490812Y-92960518D01*
X145454502Y-92840820D01*
X145395537Y-92730506D01*
X145316185Y-92633815D01*
X145219494Y-92554463D01*
X145109180Y-92495498D01*
X144989482Y-92459188D01*
X144865000Y-92446928D01*
X144604860Y-92448105D01*
X144705252Y-92406521D01*
X144983687Y-92220477D01*
X145220477Y-91983687D01*
X145406521Y-91705252D01*
X145534670Y-91395872D01*
X145600000Y-91067435D01*
X145600000Y-90732565D01*
X145582710Y-90645645D01*
X145990000Y-90238355D01*
X145990001Y-101881643D01*
X144154355Y-103717289D01*
X144067435Y-103700000D01*
X143732565Y-103700000D01*
X143404128Y-103765330D01*
X143094748Y-103893479D01*
X142816313Y-104079523D01*
X142579523Y-104316313D01*
X142393479Y-104594748D01*
X142265330Y-104904128D01*
X142200000Y-105232565D01*
X142200000Y-105567435D01*
X142265330Y-105895872D01*
X142393479Y-106205252D01*
X142579523Y-106483687D01*
X142816313Y-106720477D01*
X143094748Y-106906521D01*
X143195140Y-106948105D01*
X142935000Y-106946928D01*
X142810518Y-106959188D01*
X142690820Y-106995498D01*
X142580506Y-107054463D01*
X142483815Y-107133815D01*
X142404463Y-107230506D01*
X142345498Y-107340820D01*
X142309188Y-107460518D01*
X142296928Y-107585000D01*
X142300000Y-108214250D01*
X142458750Y-108373000D01*
X143773000Y-108373000D01*
X143773000Y-108353000D01*
X144027000Y-108353000D01*
X144027000Y-108373000D01*
X145341250Y-108373000D01*
X145500000Y-108214250D01*
X145503072Y-107585000D01*
X145490812Y-107460518D01*
X145454502Y-107340820D01*
X145395537Y-107230506D01*
X145316185Y-107133815D01*
X145219494Y-107054463D01*
X145109180Y-106995498D01*
X144989482Y-106959188D01*
X144865000Y-106946928D01*
X144604860Y-106948105D01*
X144705252Y-106906521D01*
X144983687Y-106720477D01*
X145220477Y-106483687D01*
X145406521Y-106205252D01*
X145534670Y-105895872D01*
X145600000Y-105567435D01*
X145600000Y-105232565D01*
X145582711Y-105145645D01*
X147393415Y-103334941D01*
X147563840Y-103243847D01*
X147717633Y-103117633D01*
X147843847Y-102963840D01*
X147937632Y-102788380D01*
X147995385Y-102597994D01*
X148010000Y-102449608D01*
X148010000Y-87849606D01*
X148014886Y-87800001D01*
X148010000Y-87750396D01*
X148010000Y-79549604D01*
X148014886Y-79499999D01*
X148002377Y-79373000D01*
X147995385Y-79302006D01*
X147937632Y-79111620D01*
X147843847Y-78936160D01*
X147717633Y-78782367D01*
X147679094Y-78750739D01*
X145582710Y-76654355D01*
X145600000Y-76567435D01*
X145600000Y-76232565D01*
X145534670Y-75904128D01*
X145406521Y-75594748D01*
X145220477Y-75316313D01*
X144983687Y-75079523D01*
X144705252Y-74893479D01*
X144395872Y-74765330D01*
X144067435Y-74700000D01*
X143732565Y-74700000D01*
X143404128Y-74765330D01*
X143094748Y-74893479D01*
X142816313Y-75079523D01*
X142579523Y-75316313D01*
X142393479Y-75594748D01*
X142265330Y-75904128D01*
X142200000Y-76232565D01*
X139660000Y-76232565D01*
X139660000Y-67932565D01*
X142200000Y-67932565D01*
X142200000Y-68267435D01*
X142265330Y-68595872D01*
X142393479Y-68905252D01*
X142579523Y-69183687D01*
X142816313Y-69420477D01*
X143094748Y-69606521D01*
X143404128Y-69734670D01*
X143732565Y-69800000D01*
X144067435Y-69800000D01*
X144395872Y-69734670D01*
X144705252Y-69606521D01*
X144983687Y-69420477D01*
X145220477Y-69183687D01*
X145406521Y-68905252D01*
X145534670Y-68595872D01*
X145600000Y-68267435D01*
X145600000Y-67932565D01*
X145534670Y-67604128D01*
X145406521Y-67294748D01*
X145220477Y-67016313D01*
X144983687Y-66779523D01*
X144705252Y-66593479D01*
X144604860Y-66551895D01*
X144865000Y-66553072D01*
X144989482Y-66540812D01*
X145109180Y-66504502D01*
X145219494Y-66445537D01*
X145316185Y-66366185D01*
X145395537Y-66269494D01*
X145454502Y-66159180D01*
X145490812Y-66039482D01*
X145503072Y-65915000D01*
X145500000Y-65285750D01*
X145341250Y-65127000D01*
X144027000Y-65127000D01*
X144027000Y-65147000D01*
X143773000Y-65147000D01*
X143773000Y-65127000D01*
X142458750Y-65127000D01*
X142300000Y-65285750D01*
X142296928Y-65915000D01*
X142309188Y-66039482D01*
X142345498Y-66159180D01*
X142404463Y-66269494D01*
X142483815Y-66366185D01*
X142580506Y-66445537D01*
X142690820Y-66504502D01*
X142810518Y-66540812D01*
X142935000Y-66553072D01*
X143195140Y-66551895D01*
X143094748Y-66593479D01*
X142816313Y-66779523D01*
X142579523Y-67016313D01*
X142393479Y-67294748D01*
X142265330Y-67604128D01*
X142200000Y-67932565D01*
X139660000Y-67932565D01*
X139660000Y-63660000D01*
X142462326Y-63660000D01*
X142404463Y-63730506D01*
%TA.AperFunction,Conductor*%
D14*
G36*
X142404463Y-63730506D02*
G01*
X142345498Y-63840820D01*
X142309188Y-63960518D01*
X142296928Y-64085000D01*
X142300000Y-64714250D01*
X142458750Y-64873000D01*
X143773000Y-64873000D01*
X143773000Y-64853000D01*
X144027000Y-64853000D01*
X144027000Y-64873000D01*
X145341250Y-64873000D01*
X145500000Y-64714250D01*
X145503072Y-64085000D01*
X145490812Y-63960518D01*
X145454502Y-63840820D01*
X145395537Y-63730506D01*
X145337674Y-63660000D01*
X148140000Y-63660000D01*
X148140001Y-164840000D01*
X144804808Y-164840000D01*
X144983687Y-164720477D01*
X145220477Y-164483687D01*
X145406521Y-164205252D01*
X145534670Y-163895872D01*
X145600000Y-163567435D01*
X145600000Y-163232565D01*
X145582710Y-163145645D01*
X147679094Y-161049261D01*
X147717633Y-161017633D01*
X147843847Y-160863840D01*
X147937632Y-160688380D01*
X147995385Y-160497994D01*
X148010000Y-160349608D01*
X148010000Y-160349606D01*
X148014886Y-160300001D01*
X148010000Y-160250396D01*
X148010000Y-145849606D01*
X148014886Y-145800001D01*
X148010000Y-145750396D01*
X148010000Y-131649608D01*
X148014886Y-131600000D01*
X148010000Y-131550392D01*
X148010000Y-123049604D01*
X148014886Y-122999999D01*
X148002377Y-122873000D01*
X147995385Y-122802006D01*
X147937632Y-122611620D01*
X147843847Y-122436160D01*
X147717633Y-122282367D01*
X147679094Y-122250739D01*
X145582710Y-120154355D01*
X145600000Y-120067435D01*
X145600000Y-119732565D01*
X145534670Y-119404128D01*
X145406521Y-119094748D01*
X145220477Y-118816313D01*
X144983687Y-118579523D01*
X144705252Y-118393479D01*
X144395872Y-118265330D01*
X144067435Y-118200000D01*
X143732565Y-118200000D01*
X143404128Y-118265330D01*
X143094748Y-118393479D01*
X142816313Y-118579523D01*
X142579523Y-118816313D01*
X142393479Y-119094748D01*
X142265330Y-119404128D01*
X142200000Y-119732565D01*
X142200000Y-120067435D01*
X142265330Y-120395872D01*
X142393479Y-120705252D01*
X142579523Y-120983687D01*
X142816313Y-121220477D01*
X143094748Y-121406521D01*
X143195140Y-121448105D01*
X142935000Y-121446928D01*
X142810518Y-121459188D01*
X142690820Y-121495498D01*
X142580506Y-121554463D01*
X142483815Y-121633815D01*
X142404463Y-121730506D01*
X142345498Y-121840820D01*
X142309188Y-121960518D01*
X142296928Y-122085000D01*
X142300000Y-122714250D01*
X142458750Y-122873000D01*
X143773000Y-122873000D01*
X143773000Y-122853000D01*
X144027000Y-122853000D01*
X144027000Y-122873000D01*
X145341250Y-122873000D01*
X145392948Y-122821303D01*
X145990000Y-123418355D01*
X145990001Y-130876102D01*
X145982367Y-130882367D01*
X145950744Y-130920900D01*
X144154355Y-132717289D01*
X144067435Y-132700000D01*
X143732565Y-132700000D01*
X143404128Y-132765330D01*
X143094748Y-132893479D01*
X142816313Y-133079523D01*
X142579523Y-133316313D01*
X142393479Y-133594748D01*
X142265330Y-133904128D01*
X142200000Y-134232565D01*
X142200000Y-134567435D01*
X142265330Y-134895872D01*
X142393479Y-135205252D01*
X142579523Y-135483687D01*
X142816313Y-135720477D01*
X143094748Y-135906521D01*
X143195140Y-135948105D01*
X142935000Y-135946928D01*
X142810518Y-135959188D01*
X142690820Y-135995498D01*
X142580506Y-136054463D01*
X142483815Y-136133815D01*
X142404463Y-136230506D01*
X142345498Y-136340820D01*
X142309188Y-136460518D01*
X142296928Y-136585000D01*
X142300000Y-137214250D01*
X142458750Y-137373000D01*
X143773000Y-137373000D01*
X143773000Y-137353000D01*
X144027000Y-137353000D01*
X144027000Y-137373000D01*
X145341250Y-137373000D01*
X145500000Y-137214250D01*
X145503072Y-136585000D01*
X145490812Y-136460518D01*
X145454502Y-136340820D01*
X145395537Y-136230506D01*
X145316185Y-136133815D01*
X145219494Y-136054463D01*
X145109180Y-135995498D01*
X144989482Y-135959188D01*
X144865000Y-135946928D01*
X144604860Y-135948105D01*
X144705252Y-135906521D01*
X144983687Y-135720477D01*
X145220477Y-135483687D01*
X145406521Y-135205252D01*
X145534670Y-134895872D01*
X145600000Y-134567435D01*
X145600000Y-134232565D01*
X145582711Y-134145645D01*
X145990000Y-133738355D01*
X145990001Y-144950383D01*
X145990000Y-144950393D01*
X145990000Y-145381645D01*
X144154355Y-147217290D01*
X144067435Y-147200000D01*
X143732565Y-147200000D01*
X143404128Y-147265330D01*
X143094748Y-147393479D01*
X142816313Y-147579523D01*
X142579523Y-147816313D01*
X142393479Y-148094748D01*
X142265330Y-148404128D01*
X142200000Y-148732565D01*
X142200000Y-149067435D01*
X142265330Y-149395872D01*
X142393479Y-149705252D01*
X142579523Y-149983687D01*
X142816313Y-150220477D01*
X143094748Y-150406521D01*
X143195140Y-150448105D01*
X142935000Y-150446928D01*
X142810518Y-150459188D01*
X142690820Y-150495498D01*
X142580506Y-150554463D01*
X142483815Y-150633815D01*
X142404463Y-150730506D01*
X142345498Y-150840820D01*
X142309188Y-150960518D01*
X142296928Y-151085000D01*
X142300000Y-151714250D01*
X142458750Y-151873000D01*
X143773000Y-151873000D01*
X143773000Y-151853000D01*
X144027000Y-151853000D01*
X144027000Y-151873000D01*
X145341250Y-151873000D01*
X145500000Y-151714250D01*
X145503072Y-151085000D01*
X145490812Y-150960518D01*
X145454502Y-150840820D01*
X145395537Y-150730506D01*
X145316185Y-150633815D01*
X145219494Y-150554463D01*
X145109180Y-150495498D01*
X144989482Y-150459188D01*
X144865000Y-150446928D01*
X144604860Y-150448105D01*
X144705252Y-150406521D01*
X144983687Y-150220477D01*
X145220477Y-149983687D01*
X145406521Y-149705252D01*
X145534670Y-149395872D01*
X145600000Y-149067435D01*
X145600000Y-148732565D01*
X145582710Y-148645645D01*
X145990000Y-148238355D01*
X145990001Y-159881644D01*
X144154355Y-161717290D01*
X144067435Y-161700000D01*
X143732565Y-161700000D01*
X143404128Y-161765330D01*
X143094748Y-161893479D01*
X142816313Y-162079523D01*
X142579523Y-162316313D01*
X142393479Y-162594748D01*
X142265330Y-162904128D01*
X142200000Y-163232565D01*
X142200000Y-163567435D01*
X142265330Y-163895872D01*
X142393479Y-164205252D01*
X142579523Y-164483687D01*
X142816313Y-164720477D01*
X142995192Y-164840000D01*
X139660000Y-164840000D01*
X139660000Y-154932565D01*
X142200000Y-154932565D01*
X142200000Y-155267435D01*
X142265330Y-155595872D01*
X142393479Y-155905252D01*
X142579523Y-156183687D01*
X142816313Y-156420477D01*
X143094748Y-156606521D01*
X143404128Y-156734670D01*
X143732565Y-156800000D01*
X144067435Y-156800000D01*
X144395872Y-156734670D01*
X144705252Y-156606521D01*
X144983687Y-156420477D01*
X145220477Y-156183687D01*
X145406521Y-155905252D01*
X145534670Y-155595872D01*
X145600000Y-155267435D01*
X145600000Y-154932565D01*
X145534670Y-154604128D01*
X145406521Y-154294748D01*
X145220477Y-154016313D01*
X144983687Y-153779523D01*
X144705252Y-153593479D01*
X144604860Y-153551895D01*
X144865000Y-153553072D01*
X144989482Y-153540812D01*
X145109180Y-153504502D01*
X145219494Y-153445537D01*
X145316185Y-153366185D01*
X145395537Y-153269494D01*
X145454502Y-153159180D01*
X145490812Y-153039482D01*
X145503072Y-152915000D01*
X145500000Y-152285750D01*
X145341250Y-152127000D01*
X144027000Y-152127000D01*
X144027000Y-152147000D01*
X143773000Y-152147000D01*
X143773000Y-152127000D01*
X142458750Y-152127000D01*
X142300000Y-152285750D01*
X142296928Y-152915000D01*
X142309188Y-153039482D01*
X142345498Y-153159180D01*
X142404463Y-153269494D01*
X142483815Y-153366185D01*
X142580506Y-153445537D01*
X142690820Y-153504502D01*
X142810518Y-153540812D01*
X142935000Y-153553072D01*
X143195140Y-153551895D01*
X143094748Y-153593479D01*
X142816313Y-153779523D01*
X142579523Y-154016313D01*
X142393479Y-154294748D01*
X142265330Y-154604128D01*
X142200000Y-154932565D01*
X139660000Y-154932565D01*
X139660000Y-140432565D01*
X142200000Y-140432565D01*
X142200000Y-140767435D01*
X142265330Y-141095872D01*
X142393479Y-141405252D01*
X142579523Y-141683687D01*
X142816313Y-141920477D01*
X143094748Y-142106521D01*
X143404128Y-142234670D01*
X143732565Y-142300000D01*
X144067435Y-142300000D01*
X144395872Y-142234670D01*
X144705252Y-142106521D01*
X144983687Y-141920477D01*
X145220477Y-141683687D01*
X145406521Y-141405252D01*
X145534670Y-141095872D01*
X145600000Y-140767435D01*
X145600000Y-140432565D01*
X145534670Y-140104128D01*
X145406521Y-139794748D01*
X145220477Y-139516313D01*
X144983687Y-139279523D01*
X144705252Y-139093479D01*
X144604860Y-139051895D01*
X144865000Y-139053072D01*
X144989482Y-139040812D01*
X145109180Y-139004502D01*
X145219494Y-138945537D01*
X145316185Y-138866185D01*
X145395537Y-138769494D01*
X145454502Y-138659180D01*
X145490812Y-138539482D01*
X145503072Y-138415000D01*
X145500000Y-137785750D01*
X145341250Y-137627000D01*
X144027000Y-137627000D01*
X144027000Y-137647000D01*
X143773000Y-137647000D01*
X143773000Y-137627000D01*
X142458750Y-137627000D01*
X142300000Y-137785750D01*
X142296928Y-138415000D01*
X142309188Y-138539482D01*
X142345498Y-138659180D01*
X142404463Y-138769494D01*
X142483815Y-138866185D01*
X142580506Y-138945537D01*
X142690820Y-139004502D01*
X142810518Y-139040812D01*
X142935000Y-139053072D01*
X143195140Y-139051895D01*
X143094748Y-139093479D01*
X142816313Y-139279523D01*
X142579523Y-139516313D01*
X142393479Y-139794748D01*
X142265330Y-140104128D01*
X142200000Y-140432565D01*
X139660000Y-140432565D01*
X139660000Y-125932565D01*
X142200000Y-125932565D01*
X142200000Y-126267435D01*
X142265330Y-126595872D01*
X142393479Y-126905252D01*
X142579523Y-127183687D01*
X142816313Y-127420477D01*
X143094748Y-127606521D01*
X143404128Y-127734670D01*
X143732565Y-127800000D01*
X144067435Y-127800000D01*
X144395872Y-127734670D01*
X144705252Y-127606521D01*
X144983687Y-127420477D01*
X145220477Y-127183687D01*
X145406521Y-126905252D01*
X145534670Y-126595872D01*
X145600000Y-126267435D01*
X145600000Y-125932565D01*
X145534670Y-125604128D01*
X145406521Y-125294748D01*
X145220477Y-125016313D01*
X144983687Y-124779523D01*
X144705252Y-124593479D01*
X144604860Y-124551895D01*
X144865000Y-124553072D01*
X144989482Y-124540812D01*
X145109180Y-124504502D01*
X145219494Y-124445537D01*
X145316185Y-124366185D01*
X145395537Y-124269494D01*
X145454502Y-124159180D01*
X145490812Y-124039482D01*
X145503072Y-123915000D01*
X145500000Y-123285750D01*
X145341250Y-123127000D01*
X144027000Y-123127000D01*
X144027000Y-123147000D01*
X143773000Y-123147000D01*
X143773000Y-123127000D01*
X142458750Y-123127000D01*
X142300000Y-123285750D01*
X142296928Y-123915000D01*
X142309188Y-124039482D01*
X142345498Y-124159180D01*
X142404463Y-124269494D01*
X142483815Y-124366185D01*
X142580506Y-124445537D01*
X142690820Y-124504502D01*
X142810518Y-124540812D01*
X142935000Y-124553072D01*
X143195140Y-124551895D01*
X143094748Y-124593479D01*
X142816313Y-124779523D01*
X142579523Y-125016313D01*
X142393479Y-125294748D01*
X142265330Y-125604128D01*
X142200000Y-125932565D01*
X139660000Y-125932565D01*
X139660000Y-111432565D01*
X142200000Y-111432565D01*
X142200000Y-111767435D01*
X142265330Y-112095872D01*
X142393479Y-112405252D01*
X142579523Y-112683687D01*
X142816313Y-112920477D01*
X143094748Y-113106521D01*
X143404128Y-113234670D01*
X143732565Y-113300000D01*
X144067435Y-113300000D01*
X144395872Y-113234670D01*
X144705252Y-113106521D01*
X144983687Y-112920477D01*
X145220477Y-112683687D01*
X145406521Y-112405252D01*
X145534670Y-112095872D01*
X145600000Y-111767435D01*
X145600000Y-111432565D01*
X145534670Y-111104128D01*
X145406521Y-110794748D01*
X145220477Y-110516313D01*
X144983687Y-110279523D01*
X144705252Y-110093479D01*
X144604860Y-110051895D01*
X144865000Y-110053072D01*
X144989482Y-110040812D01*
X145109180Y-110004502D01*
X145219494Y-109945537D01*
X145316185Y-109866185D01*
X145395537Y-109769494D01*
X145454502Y-109659180D01*
X145490812Y-109539482D01*
X145503072Y-109415000D01*
X145500000Y-108785750D01*
X145341250Y-108627000D01*
X144027000Y-108627000D01*
X144027000Y-108647000D01*
X143773000Y-108647000D01*
X143773000Y-108627000D01*
X142458750Y-108627000D01*
X142300000Y-108785750D01*
X142296928Y-109415000D01*
X142309188Y-109539482D01*
X142345498Y-109659180D01*
X142404463Y-109769494D01*
X142483815Y-109866185D01*
X142580506Y-109945537D01*
X142690820Y-110004502D01*
X142810518Y-110040812D01*
X142935000Y-110053072D01*
X143195140Y-110051895D01*
X143094748Y-110093479D01*
X142816313Y-110279523D01*
X142579523Y-110516313D01*
X142393479Y-110794748D01*
X142265330Y-111104128D01*
X142200000Y-111432565D01*
X139660000Y-111432565D01*
X139660000Y-96932565D01*
X142200000Y-96932565D01*
X142200000Y-97267435D01*
X142265330Y-97595872D01*
X142393479Y-97905252D01*
X142579523Y-98183687D01*
X142816313Y-98420477D01*
X143094748Y-98606521D01*
X143404128Y-98734670D01*
X143732565Y-98800000D01*
X144067435Y-98800000D01*
X144395872Y-98734670D01*
X144705252Y-98606521D01*
X144983687Y-98420477D01*
X145220477Y-98183687D01*
X145406521Y-97905252D01*
X145534670Y-97595872D01*
X145600000Y-97267435D01*
X145600000Y-96932565D01*
X145534670Y-96604128D01*
X145406521Y-96294748D01*
X145220477Y-96016313D01*
X144983687Y-95779523D01*
X144705252Y-95593479D01*
X144604860Y-95551895D01*
X144865000Y-95553072D01*
X144989482Y-95540812D01*
X145109180Y-95504502D01*
X145219494Y-95445537D01*
X145316185Y-95366185D01*
X145395537Y-95269494D01*
X145454502Y-95159180D01*
X145490812Y-95039482D01*
X145503072Y-94915000D01*
X145500000Y-94285750D01*
X145341250Y-94127000D01*
X144027000Y-94127000D01*
X144027000Y-94147000D01*
X143773000Y-94147000D01*
X143773000Y-94127000D01*
X142458750Y-94127000D01*
X142300000Y-94285750D01*
X142296928Y-94915000D01*
X142309188Y-95039482D01*
X142345498Y-95159180D01*
X142404463Y-95269494D01*
X142483815Y-95366185D01*
X142580506Y-95445537D01*
X142690820Y-95504502D01*
X142810518Y-95540812D01*
X142935000Y-95553072D01*
X143195140Y-95551895D01*
X143094748Y-95593479D01*
X142816313Y-95779523D01*
X142579523Y-96016313D01*
X142393479Y-96294748D01*
X142265330Y-96604128D01*
X142200000Y-96932565D01*
X139660000Y-96932565D01*
X139660000Y-82432565D01*
X142200000Y-82432565D01*
X142200000Y-82767435D01*
X142265330Y-83095872D01*
X142393479Y-83405252D01*
X142579523Y-83683687D01*
X142816313Y-83920477D01*
X143094748Y-84106521D01*
X143404128Y-84234670D01*
X143732565Y-84300000D01*
X144067435Y-84300000D01*
X144395872Y-84234670D01*
X144705252Y-84106521D01*
X144983687Y-83920477D01*
X145220477Y-83683687D01*
X145406521Y-83405252D01*
X145534670Y-83095872D01*
X145600000Y-82767435D01*
X145600000Y-82432565D01*
X145534670Y-82104128D01*
X145406521Y-81794748D01*
X145220477Y-81516313D01*
X144983687Y-81279523D01*
X144705252Y-81093479D01*
X144604860Y-81051895D01*
X144865000Y-81053072D01*
X144989482Y-81040812D01*
X145109180Y-81004502D01*
X145219494Y-80945537D01*
X145316185Y-80866185D01*
X145395537Y-80769494D01*
X145454502Y-80659180D01*
X145490812Y-80539482D01*
X145503072Y-80415000D01*
X145500000Y-79785750D01*
X145341250Y-79627000D01*
X144027000Y-79627000D01*
X144027000Y-79647000D01*
X143773000Y-79647000D01*
X143773000Y-79627000D01*
X142458750Y-79627000D01*
X142300000Y-79785750D01*
X142296928Y-80415000D01*
X142309188Y-80539482D01*
X142345498Y-80659180D01*
X142404463Y-80769494D01*
X142483815Y-80866185D01*
X142580506Y-80945537D01*
X142690820Y-81004502D01*
X142810518Y-81040812D01*
X142935000Y-81053072D01*
X143195140Y-81051895D01*
X143094748Y-81093479D01*
X142816313Y-81279523D01*
X142579523Y-81516313D01*
X142393479Y-81794748D01*
X142265330Y-82104128D01*
X142200000Y-82432565D01*
X139660000Y-82432565D01*
X139660000Y-76232565D01*
X142200000Y-76232565D01*
X142200000Y-76567435D01*
X142265330Y-76895872D01*
X142393479Y-77205252D01*
X142579523Y-77483687D01*
X142816313Y-77720477D01*
X143094748Y-77906521D01*
X143195140Y-77948105D01*
X142935000Y-77946928D01*
X142810518Y-77959188D01*
X142690820Y-77995498D01*
X142580506Y-78054463D01*
X142483815Y-78133815D01*
X142404463Y-78230506D01*
X142345498Y-78340820D01*
X142309188Y-78460518D01*
X142296928Y-78585000D01*
X142300000Y-79214250D01*
X142458750Y-79373000D01*
X143773000Y-79373000D01*
X143773000Y-79353000D01*
X144027000Y-79353000D01*
X144027000Y-79373000D01*
X145341250Y-79373000D01*
X145392948Y-79321303D01*
X145990000Y-79918355D01*
X145990001Y-87381644D01*
X144154355Y-89217290D01*
X144067435Y-89200000D01*
X143732565Y-89200000D01*
X143404128Y-89265330D01*
X143094748Y-89393479D01*
X142816313Y-89579523D01*
X142579523Y-89816313D01*
X142393479Y-90094748D01*
X142265330Y-90404128D01*
X142200000Y-90732565D01*
X142200000Y-91067435D01*
X142265330Y-91395872D01*
X142393479Y-91705252D01*
X142579523Y-91983687D01*
X142816313Y-92220477D01*
X143094748Y-92406521D01*
X143195140Y-92448105D01*
X142935000Y-92446928D01*
X142810518Y-92459188D01*
X142690820Y-92495498D01*
X142580506Y-92554463D01*
X142483815Y-92633815D01*
X142404463Y-92730506D01*
X142345498Y-92840820D01*
X142309188Y-92960518D01*
X142296928Y-93085000D01*
X142300000Y-93714250D01*
X142458750Y-93873000D01*
X143773000Y-93873000D01*
X143773000Y-93853000D01*
X144027000Y-93853000D01*
X144027000Y-93873000D01*
X145341250Y-93873000D01*
X145500000Y-93714250D01*
X145503072Y-93085000D01*
X145490812Y-92960518D01*
X145454502Y-92840820D01*
X145395537Y-92730506D01*
X145316185Y-92633815D01*
X145219494Y-92554463D01*
X145109180Y-92495498D01*
X144989482Y-92459188D01*
X144865000Y-92446928D01*
X144604860Y-92448105D01*
X144705252Y-92406521D01*
X144983687Y-92220477D01*
X145220477Y-91983687D01*
X145406521Y-91705252D01*
X145534670Y-91395872D01*
X145600000Y-91067435D01*
X145600000Y-90732565D01*
X145582710Y-90645645D01*
X145990000Y-90238355D01*
X145990001Y-101881643D01*
X144154355Y-103717289D01*
X144067435Y-103700000D01*
X143732565Y-103700000D01*
X143404128Y-103765330D01*
X143094748Y-103893479D01*
X142816313Y-104079523D01*
X142579523Y-104316313D01*
X142393479Y-104594748D01*
X142265330Y-104904128D01*
X142200000Y-105232565D01*
X142200000Y-105567435D01*
X142265330Y-105895872D01*
X142393479Y-106205252D01*
X142579523Y-106483687D01*
X142816313Y-106720477D01*
X143094748Y-106906521D01*
X143195140Y-106948105D01*
X142935000Y-106946928D01*
X142810518Y-106959188D01*
X142690820Y-106995498D01*
X142580506Y-107054463D01*
X142483815Y-107133815D01*
X142404463Y-107230506D01*
X142345498Y-107340820D01*
X142309188Y-107460518D01*
X142296928Y-107585000D01*
X142300000Y-108214250D01*
X142458750Y-108373000D01*
X143773000Y-108373000D01*
X143773000Y-108353000D01*
X144027000Y-108353000D01*
X144027000Y-108373000D01*
X145341250Y-108373000D01*
X145500000Y-108214250D01*
X145503072Y-107585000D01*
X145490812Y-107460518D01*
X145454502Y-107340820D01*
X145395537Y-107230506D01*
X145316185Y-107133815D01*
X145219494Y-107054463D01*
X145109180Y-106995498D01*
X144989482Y-106959188D01*
X144865000Y-106946928D01*
X144604860Y-106948105D01*
X144705252Y-106906521D01*
X144983687Y-106720477D01*
X145220477Y-106483687D01*
X145406521Y-106205252D01*
X145534670Y-105895872D01*
X145600000Y-105567435D01*
X145600000Y-105232565D01*
X145582711Y-105145645D01*
X147393415Y-103334941D01*
X147563840Y-103243847D01*
X147717633Y-103117633D01*
X147843847Y-102963840D01*
X147937632Y-102788380D01*
X147995385Y-102597994D01*
X148010000Y-102449608D01*
X148010000Y-87849606D01*
X148014886Y-87800001D01*
X148010000Y-87750396D01*
X148010000Y-79549604D01*
X148014886Y-79499999D01*
X148002377Y-79373000D01*
X147995385Y-79302006D01*
X147937632Y-79111620D01*
X147843847Y-78936160D01*
X147717633Y-78782367D01*
X147679094Y-78750739D01*
X145582710Y-76654355D01*
X145600000Y-76567435D01*
X145600000Y-76232565D01*
X145534670Y-75904128D01*
X145406521Y-75594748D01*
X145220477Y-75316313D01*
X144983687Y-75079523D01*
X144705252Y-74893479D01*
X144395872Y-74765330D01*
X144067435Y-74700000D01*
X143732565Y-74700000D01*
X143404128Y-74765330D01*
X143094748Y-74893479D01*
X142816313Y-75079523D01*
X142579523Y-75316313D01*
X142393479Y-75594748D01*
X142265330Y-75904128D01*
X142200000Y-76232565D01*
X139660000Y-76232565D01*
X139660000Y-67932565D01*
X142200000Y-67932565D01*
X142200000Y-68267435D01*
X142265330Y-68595872D01*
X142393479Y-68905252D01*
X142579523Y-69183687D01*
X142816313Y-69420477D01*
X143094748Y-69606521D01*
X143404128Y-69734670D01*
X143732565Y-69800000D01*
X144067435Y-69800000D01*
X144395872Y-69734670D01*
X144705252Y-69606521D01*
X144983687Y-69420477D01*
X145220477Y-69183687D01*
X145406521Y-68905252D01*
X145534670Y-68595872D01*
X145600000Y-68267435D01*
X145600000Y-67932565D01*
X145534670Y-67604128D01*
X145406521Y-67294748D01*
X145220477Y-67016313D01*
X144983687Y-66779523D01*
X144705252Y-66593479D01*
X144604860Y-66551895D01*
X144865000Y-66553072D01*
X144989482Y-66540812D01*
X145109180Y-66504502D01*
X145219494Y-66445537D01*
X145316185Y-66366185D01*
X145395537Y-66269494D01*
X145454502Y-66159180D01*
X145490812Y-66039482D01*
X145503072Y-65915000D01*
X145500000Y-65285750D01*
X145341250Y-65127000D01*
X144027000Y-65127000D01*
X144027000Y-65147000D01*
X143773000Y-65147000D01*
X143773000Y-65127000D01*
X142458750Y-65127000D01*
X142300000Y-65285750D01*
X142296928Y-65915000D01*
X142309188Y-66039482D01*
X142345498Y-66159180D01*
X142404463Y-66269494D01*
X142483815Y-66366185D01*
X142580506Y-66445537D01*
X142690820Y-66504502D01*
X142810518Y-66540812D01*
X142935000Y-66553072D01*
X143195140Y-66551895D01*
X143094748Y-66593479D01*
X142816313Y-66779523D01*
X142579523Y-67016313D01*
X142393479Y-67294748D01*
X142265330Y-67604128D01*
X142200000Y-67932565D01*
X139660000Y-67932565D01*
X139660000Y-63660000D01*
X142462326Y-63660000D01*
X142404463Y-63730506D01*
G37*
%TD.AperFunction*%
%TD*%
M02*
