%TF.GenerationSoftware,KiCad,Pcbnew,5.1.9+dfsg1-1~bpo10+1*%
%TF.CreationDate,2022-02-16T02:46:19+08:00*%
%TF.ProjectId,MiniMult  1.1 - Front,4d696e69-4d75-46c7-9420-20312e31202d,rev?*%
%TF.SameCoordinates,Original*%
%TF.FileFunction,Copper,L1,Top*%
%TF.FilePolarity,Positive*%
%FSLAX46Y46*%
G04 Gerber Fmt 4.6, Leading zero omitted, Abs format (unit mm)*
G04 Created by KiCad (PCBNEW 5.1.9+dfsg1-1~bpo10+1) date 2022-02-16 02:46:19*
%MOMM*%
%LPD*%
G01*
G04 APERTURE LIST*
%TA.AperFunction,ComponentPad*%
%ADD10C,7.000000*%
%TD*%
%TA.AperFunction,ComponentPad*%
%ADD11O,6.000000X4.200000*%
%TD*%
%TA.AperFunction,NonConductor*%
%ADD12C,0.254000*%
%TD*%
%TA.AperFunction,NonConductor*%
%ADD13C,0.100000*%
%TD*%
G04 APERTURE END LIST*
D10*
%TO.P,REF\u002A\u002A,*%
%TO.N,*%
X124900000Y-129400000D03*
%TD*%
%TO.P,REF\u002A\u002A,*%
%TO.N,*%
X124900000Y-143900000D03*
%TD*%
%TO.P,REF\u002A\u002A,*%
%TO.N,*%
X124900000Y-158400000D03*
%TD*%
%TO.P,REF\u002A\u002A,*%
%TO.N,*%
X124900000Y-114900000D03*
%TD*%
%TO.P,REF\u002A\u002A,*%
%TO.N,*%
X124900000Y-100400000D03*
%TD*%
%TO.P,REF\u002A\u002A,*%
%TO.N,*%
X124900000Y-85900000D03*
%TD*%
%TO.P,REF\u002A\u002A,*%
%TO.N,*%
X124900000Y-71400000D03*
%TD*%
D11*
%TO.P,REF\u002A\u002A,1*%
%TO.N,N/C*%
X124900000Y-53000000D03*
X124900000Y-175500000D03*
%TD*%
D12*
X122473164Y-50714928D02*
X122056706Y-51056706D01*
X121714928Y-51473164D01*
X121460964Y-51948297D01*
X121304574Y-52463846D01*
X121251767Y-53000000D01*
X121304574Y-53536154D01*
X121460964Y-54051703D01*
X121714928Y-54526836D01*
X122056706Y-54943294D01*
X122473164Y-55285072D01*
X122948297Y-55539036D01*
X123463846Y-55695426D01*
X123865644Y-55735000D01*
X125934356Y-55735000D01*
X126336154Y-55695426D01*
X126851703Y-55539036D01*
X127326836Y-55285072D01*
X127743294Y-54943294D01*
X128085072Y-54526836D01*
X128339036Y-54051703D01*
X128495426Y-53536154D01*
X128548233Y-53000000D01*
X128495426Y-52463846D01*
X128339036Y-51948297D01*
X128085072Y-51473164D01*
X127743294Y-51056706D01*
X127326836Y-50714928D01*
X127270845Y-50685000D01*
X129115000Y-50685000D01*
X129115001Y-177815000D01*
X127270845Y-177815000D01*
X127326836Y-177785072D01*
X127743294Y-177443294D01*
X128085072Y-177026836D01*
X128339036Y-176551703D01*
X128495426Y-176036154D01*
X128548233Y-175500000D01*
X128495426Y-174963846D01*
X128339036Y-174448297D01*
X128085072Y-173973164D01*
X127743294Y-173556706D01*
X127326836Y-173214928D01*
X126851703Y-172960964D01*
X126336154Y-172804574D01*
X125934356Y-172765000D01*
X123865644Y-172765000D01*
X123463846Y-172804574D01*
X122948297Y-172960964D01*
X122473164Y-173214928D01*
X122056706Y-173556706D01*
X121714928Y-173973164D01*
X121460964Y-174448297D01*
X121304574Y-174963846D01*
X121251767Y-175500000D01*
X121304574Y-176036154D01*
X121460964Y-176551703D01*
X121714928Y-177026836D01*
X122056706Y-177443294D01*
X122473164Y-177785072D01*
X122529155Y-177815000D01*
X120685000Y-177815000D01*
X120685000Y-157992738D01*
X120765000Y-157992738D01*
X120765000Y-158807262D01*
X120923906Y-159606135D01*
X121235611Y-160358657D01*
X121688136Y-161035909D01*
X122264091Y-161611864D01*
X122941343Y-162064389D01*
X123693865Y-162376094D01*
X124492738Y-162535000D01*
X125307262Y-162535000D01*
X126106135Y-162376094D01*
X126858657Y-162064389D01*
X127535909Y-161611864D01*
X128111864Y-161035909D01*
X128564389Y-160358657D01*
X128876094Y-159606135D01*
X129035000Y-158807262D01*
X129035000Y-157992738D01*
X128876094Y-157193865D01*
X128564389Y-156441343D01*
X128111864Y-155764091D01*
X127535909Y-155188136D01*
X126858657Y-154735611D01*
X126106135Y-154423906D01*
X125307262Y-154265000D01*
X124492738Y-154265000D01*
X123693865Y-154423906D01*
X122941343Y-154735611D01*
X122264091Y-155188136D01*
X121688136Y-155764091D01*
X121235611Y-156441343D01*
X120923906Y-157193865D01*
X120765000Y-157992738D01*
X120685000Y-157992738D01*
X120685000Y-143492738D01*
X120765000Y-143492738D01*
X120765000Y-144307262D01*
X120923906Y-145106135D01*
X121235611Y-145858657D01*
X121688136Y-146535909D01*
X122264091Y-147111864D01*
X122941343Y-147564389D01*
X123693865Y-147876094D01*
X124492738Y-148035000D01*
X125307262Y-148035000D01*
X126106135Y-147876094D01*
X126858657Y-147564389D01*
X127535909Y-147111864D01*
X128111864Y-146535909D01*
X128564389Y-145858657D01*
X128876094Y-145106135D01*
X129035000Y-144307262D01*
X129035000Y-143492738D01*
X128876094Y-142693865D01*
X128564389Y-141941343D01*
X128111864Y-141264091D01*
X127535909Y-140688136D01*
X126858657Y-140235611D01*
X126106135Y-139923906D01*
X125307262Y-139765000D01*
X124492738Y-139765000D01*
X123693865Y-139923906D01*
X122941343Y-140235611D01*
X122264091Y-140688136D01*
X121688136Y-141264091D01*
X121235611Y-141941343D01*
X120923906Y-142693865D01*
X120765000Y-143492738D01*
X120685000Y-143492738D01*
X120685000Y-128992738D01*
X120765000Y-128992738D01*
X120765000Y-129807262D01*
X120923906Y-130606135D01*
X121235611Y-131358657D01*
X121688136Y-132035909D01*
X122264091Y-132611864D01*
X122941343Y-133064389D01*
X123693865Y-133376094D01*
X124492738Y-133535000D01*
X125307262Y-133535000D01*
X126106135Y-133376094D01*
X126858657Y-133064389D01*
X127535909Y-132611864D01*
X128111864Y-132035909D01*
X128564389Y-131358657D01*
X128876094Y-130606135D01*
X129035000Y-129807262D01*
X129035000Y-128992738D01*
X128876094Y-128193865D01*
X128564389Y-127441343D01*
X128111864Y-126764091D01*
X127535909Y-126188136D01*
X126858657Y-125735611D01*
X126106135Y-125423906D01*
X125307262Y-125265000D01*
X124492738Y-125265000D01*
X123693865Y-125423906D01*
X122941343Y-125735611D01*
X122264091Y-126188136D01*
X121688136Y-126764091D01*
X121235611Y-127441343D01*
X120923906Y-128193865D01*
X120765000Y-128992738D01*
X120685000Y-128992738D01*
X120685000Y-114492738D01*
X120765000Y-114492738D01*
X120765000Y-115307262D01*
X120923906Y-116106135D01*
X121235611Y-116858657D01*
X121688136Y-117535909D01*
X122264091Y-118111864D01*
X122941343Y-118564389D01*
X123693865Y-118876094D01*
X124492738Y-119035000D01*
X125307262Y-119035000D01*
X126106135Y-118876094D01*
X126858657Y-118564389D01*
X127535909Y-118111864D01*
X128111864Y-117535909D01*
X128564389Y-116858657D01*
X128876094Y-116106135D01*
X129035000Y-115307262D01*
X129035000Y-114492738D01*
X128876094Y-113693865D01*
X128564389Y-112941343D01*
X128111864Y-112264091D01*
X127535909Y-111688136D01*
X126858657Y-111235611D01*
X126106135Y-110923906D01*
X125307262Y-110765000D01*
X124492738Y-110765000D01*
X123693865Y-110923906D01*
X122941343Y-111235611D01*
X122264091Y-111688136D01*
X121688136Y-112264091D01*
X121235611Y-112941343D01*
X120923906Y-113693865D01*
X120765000Y-114492738D01*
X120685000Y-114492738D01*
X120685000Y-99992738D01*
X120765000Y-99992738D01*
X120765000Y-100807262D01*
X120923906Y-101606135D01*
X121235611Y-102358657D01*
X121688136Y-103035909D01*
X122264091Y-103611864D01*
X122941343Y-104064389D01*
X123693865Y-104376094D01*
X124492738Y-104535000D01*
X125307262Y-104535000D01*
X126106135Y-104376094D01*
X126858657Y-104064389D01*
X127535909Y-103611864D01*
X128111864Y-103035909D01*
X128564389Y-102358657D01*
X128876094Y-101606135D01*
X129035000Y-100807262D01*
X129035000Y-99992738D01*
X128876094Y-99193865D01*
X128564389Y-98441343D01*
X128111864Y-97764091D01*
X127535909Y-97188136D01*
X126858657Y-96735611D01*
X126106135Y-96423906D01*
X125307262Y-96265000D01*
X124492738Y-96265000D01*
X123693865Y-96423906D01*
X122941343Y-96735611D01*
X122264091Y-97188136D01*
X121688136Y-97764091D01*
X121235611Y-98441343D01*
X120923906Y-99193865D01*
X120765000Y-99992738D01*
X120685000Y-99992738D01*
X120685000Y-85492738D01*
X120765000Y-85492738D01*
X120765000Y-86307262D01*
X120923906Y-87106135D01*
X121235611Y-87858657D01*
X121688136Y-88535909D01*
X122264091Y-89111864D01*
X122941343Y-89564389D01*
X123693865Y-89876094D01*
X124492738Y-90035000D01*
X125307262Y-90035000D01*
X126106135Y-89876094D01*
X126858657Y-89564389D01*
X127535909Y-89111864D01*
X128111864Y-88535909D01*
X128564389Y-87858657D01*
X128876094Y-87106135D01*
X129035000Y-86307262D01*
X129035000Y-85492738D01*
X128876094Y-84693865D01*
X128564389Y-83941343D01*
X128111864Y-83264091D01*
X127535909Y-82688136D01*
X126858657Y-82235611D01*
X126106135Y-81923906D01*
X125307262Y-81765000D01*
X124492738Y-81765000D01*
X123693865Y-81923906D01*
X122941343Y-82235611D01*
X122264091Y-82688136D01*
X121688136Y-83264091D01*
X121235611Y-83941343D01*
X120923906Y-84693865D01*
X120765000Y-85492738D01*
X120685000Y-85492738D01*
X120685000Y-70992738D01*
X120765000Y-70992738D01*
X120765000Y-71807262D01*
X120923906Y-72606135D01*
X121235611Y-73358657D01*
X121688136Y-74035909D01*
X122264091Y-74611864D01*
X122941343Y-75064389D01*
X123693865Y-75376094D01*
X124492738Y-75535000D01*
X125307262Y-75535000D01*
X126106135Y-75376094D01*
X126858657Y-75064389D01*
X127535909Y-74611864D01*
X128111864Y-74035909D01*
X128564389Y-73358657D01*
X128876094Y-72606135D01*
X129035000Y-71807262D01*
X129035000Y-70992738D01*
X128876094Y-70193865D01*
X128564389Y-69441343D01*
X128111864Y-68764091D01*
X127535909Y-68188136D01*
X126858657Y-67735611D01*
X126106135Y-67423906D01*
X125307262Y-67265000D01*
X124492738Y-67265000D01*
X123693865Y-67423906D01*
X122941343Y-67735611D01*
X122264091Y-68188136D01*
X121688136Y-68764091D01*
X121235611Y-69441343D01*
X120923906Y-70193865D01*
X120765000Y-70992738D01*
X120685000Y-70992738D01*
X120685000Y-50685000D01*
X122529155Y-50685000D01*
X122473164Y-50714928D01*
%TA.AperFunction,NonConductor*%
D13*
G36*
X122473164Y-50714928D02*
G01*
X122056706Y-51056706D01*
X121714928Y-51473164D01*
X121460964Y-51948297D01*
X121304574Y-52463846D01*
X121251767Y-53000000D01*
X121304574Y-53536154D01*
X121460964Y-54051703D01*
X121714928Y-54526836D01*
X122056706Y-54943294D01*
X122473164Y-55285072D01*
X122948297Y-55539036D01*
X123463846Y-55695426D01*
X123865644Y-55735000D01*
X125934356Y-55735000D01*
X126336154Y-55695426D01*
X126851703Y-55539036D01*
X127326836Y-55285072D01*
X127743294Y-54943294D01*
X128085072Y-54526836D01*
X128339036Y-54051703D01*
X128495426Y-53536154D01*
X128548233Y-53000000D01*
X128495426Y-52463846D01*
X128339036Y-51948297D01*
X128085072Y-51473164D01*
X127743294Y-51056706D01*
X127326836Y-50714928D01*
X127270845Y-50685000D01*
X129115000Y-50685000D01*
X129115001Y-177815000D01*
X127270845Y-177815000D01*
X127326836Y-177785072D01*
X127743294Y-177443294D01*
X128085072Y-177026836D01*
X128339036Y-176551703D01*
X128495426Y-176036154D01*
X128548233Y-175500000D01*
X128495426Y-174963846D01*
X128339036Y-174448297D01*
X128085072Y-173973164D01*
X127743294Y-173556706D01*
X127326836Y-173214928D01*
X126851703Y-172960964D01*
X126336154Y-172804574D01*
X125934356Y-172765000D01*
X123865644Y-172765000D01*
X123463846Y-172804574D01*
X122948297Y-172960964D01*
X122473164Y-173214928D01*
X122056706Y-173556706D01*
X121714928Y-173973164D01*
X121460964Y-174448297D01*
X121304574Y-174963846D01*
X121251767Y-175500000D01*
X121304574Y-176036154D01*
X121460964Y-176551703D01*
X121714928Y-177026836D01*
X122056706Y-177443294D01*
X122473164Y-177785072D01*
X122529155Y-177815000D01*
X120685000Y-177815000D01*
X120685000Y-157992738D01*
X120765000Y-157992738D01*
X120765000Y-158807262D01*
X120923906Y-159606135D01*
X121235611Y-160358657D01*
X121688136Y-161035909D01*
X122264091Y-161611864D01*
X122941343Y-162064389D01*
X123693865Y-162376094D01*
X124492738Y-162535000D01*
X125307262Y-162535000D01*
X126106135Y-162376094D01*
X126858657Y-162064389D01*
X127535909Y-161611864D01*
X128111864Y-161035909D01*
X128564389Y-160358657D01*
X128876094Y-159606135D01*
X129035000Y-158807262D01*
X129035000Y-157992738D01*
X128876094Y-157193865D01*
X128564389Y-156441343D01*
X128111864Y-155764091D01*
X127535909Y-155188136D01*
X126858657Y-154735611D01*
X126106135Y-154423906D01*
X125307262Y-154265000D01*
X124492738Y-154265000D01*
X123693865Y-154423906D01*
X122941343Y-154735611D01*
X122264091Y-155188136D01*
X121688136Y-155764091D01*
X121235611Y-156441343D01*
X120923906Y-157193865D01*
X120765000Y-157992738D01*
X120685000Y-157992738D01*
X120685000Y-143492738D01*
X120765000Y-143492738D01*
X120765000Y-144307262D01*
X120923906Y-145106135D01*
X121235611Y-145858657D01*
X121688136Y-146535909D01*
X122264091Y-147111864D01*
X122941343Y-147564389D01*
X123693865Y-147876094D01*
X124492738Y-148035000D01*
X125307262Y-148035000D01*
X126106135Y-147876094D01*
X126858657Y-147564389D01*
X127535909Y-147111864D01*
X128111864Y-146535909D01*
X128564389Y-145858657D01*
X128876094Y-145106135D01*
X129035000Y-144307262D01*
X129035000Y-143492738D01*
X128876094Y-142693865D01*
X128564389Y-141941343D01*
X128111864Y-141264091D01*
X127535909Y-140688136D01*
X126858657Y-140235611D01*
X126106135Y-139923906D01*
X125307262Y-139765000D01*
X124492738Y-139765000D01*
X123693865Y-139923906D01*
X122941343Y-140235611D01*
X122264091Y-140688136D01*
X121688136Y-141264091D01*
X121235611Y-141941343D01*
X120923906Y-142693865D01*
X120765000Y-143492738D01*
X120685000Y-143492738D01*
X120685000Y-128992738D01*
X120765000Y-128992738D01*
X120765000Y-129807262D01*
X120923906Y-130606135D01*
X121235611Y-131358657D01*
X121688136Y-132035909D01*
X122264091Y-132611864D01*
X122941343Y-133064389D01*
X123693865Y-133376094D01*
X124492738Y-133535000D01*
X125307262Y-133535000D01*
X126106135Y-133376094D01*
X126858657Y-133064389D01*
X127535909Y-132611864D01*
X128111864Y-132035909D01*
X128564389Y-131358657D01*
X128876094Y-130606135D01*
X129035000Y-129807262D01*
X129035000Y-128992738D01*
X128876094Y-128193865D01*
X128564389Y-127441343D01*
X128111864Y-126764091D01*
X127535909Y-126188136D01*
X126858657Y-125735611D01*
X126106135Y-125423906D01*
X125307262Y-125265000D01*
X124492738Y-125265000D01*
X123693865Y-125423906D01*
X122941343Y-125735611D01*
X122264091Y-126188136D01*
X121688136Y-126764091D01*
X121235611Y-127441343D01*
X120923906Y-128193865D01*
X120765000Y-128992738D01*
X120685000Y-128992738D01*
X120685000Y-114492738D01*
X120765000Y-114492738D01*
X120765000Y-115307262D01*
X120923906Y-116106135D01*
X121235611Y-116858657D01*
X121688136Y-117535909D01*
X122264091Y-118111864D01*
X122941343Y-118564389D01*
X123693865Y-118876094D01*
X124492738Y-119035000D01*
X125307262Y-119035000D01*
X126106135Y-118876094D01*
X126858657Y-118564389D01*
X127535909Y-118111864D01*
X128111864Y-117535909D01*
X128564389Y-116858657D01*
X128876094Y-116106135D01*
X129035000Y-115307262D01*
X129035000Y-114492738D01*
X128876094Y-113693865D01*
X128564389Y-112941343D01*
X128111864Y-112264091D01*
X127535909Y-111688136D01*
X126858657Y-111235611D01*
X126106135Y-110923906D01*
X125307262Y-110765000D01*
X124492738Y-110765000D01*
X123693865Y-110923906D01*
X122941343Y-111235611D01*
X122264091Y-111688136D01*
X121688136Y-112264091D01*
X121235611Y-112941343D01*
X120923906Y-113693865D01*
X120765000Y-114492738D01*
X120685000Y-114492738D01*
X120685000Y-99992738D01*
X120765000Y-99992738D01*
X120765000Y-100807262D01*
X120923906Y-101606135D01*
X121235611Y-102358657D01*
X121688136Y-103035909D01*
X122264091Y-103611864D01*
X122941343Y-104064389D01*
X123693865Y-104376094D01*
X124492738Y-104535000D01*
X125307262Y-104535000D01*
X126106135Y-104376094D01*
X126858657Y-104064389D01*
X127535909Y-103611864D01*
X128111864Y-103035909D01*
X128564389Y-102358657D01*
X128876094Y-101606135D01*
X129035000Y-100807262D01*
X129035000Y-99992738D01*
X128876094Y-99193865D01*
X128564389Y-98441343D01*
X128111864Y-97764091D01*
X127535909Y-97188136D01*
X126858657Y-96735611D01*
X126106135Y-96423906D01*
X125307262Y-96265000D01*
X124492738Y-96265000D01*
X123693865Y-96423906D01*
X122941343Y-96735611D01*
X122264091Y-97188136D01*
X121688136Y-97764091D01*
X121235611Y-98441343D01*
X120923906Y-99193865D01*
X120765000Y-99992738D01*
X120685000Y-99992738D01*
X120685000Y-85492738D01*
X120765000Y-85492738D01*
X120765000Y-86307262D01*
X120923906Y-87106135D01*
X121235611Y-87858657D01*
X121688136Y-88535909D01*
X122264091Y-89111864D01*
X122941343Y-89564389D01*
X123693865Y-89876094D01*
X124492738Y-90035000D01*
X125307262Y-90035000D01*
X126106135Y-89876094D01*
X126858657Y-89564389D01*
X127535909Y-89111864D01*
X128111864Y-88535909D01*
X128564389Y-87858657D01*
X128876094Y-87106135D01*
X129035000Y-86307262D01*
X129035000Y-85492738D01*
X128876094Y-84693865D01*
X128564389Y-83941343D01*
X128111864Y-83264091D01*
X127535909Y-82688136D01*
X126858657Y-82235611D01*
X126106135Y-81923906D01*
X125307262Y-81765000D01*
X124492738Y-81765000D01*
X123693865Y-81923906D01*
X122941343Y-82235611D01*
X122264091Y-82688136D01*
X121688136Y-83264091D01*
X121235611Y-83941343D01*
X120923906Y-84693865D01*
X120765000Y-85492738D01*
X120685000Y-85492738D01*
X120685000Y-70992738D01*
X120765000Y-70992738D01*
X120765000Y-71807262D01*
X120923906Y-72606135D01*
X121235611Y-73358657D01*
X121688136Y-74035909D01*
X122264091Y-74611864D01*
X122941343Y-75064389D01*
X123693865Y-75376094D01*
X124492738Y-75535000D01*
X125307262Y-75535000D01*
X126106135Y-75376094D01*
X126858657Y-75064389D01*
X127535909Y-74611864D01*
X128111864Y-74035909D01*
X128564389Y-73358657D01*
X128876094Y-72606135D01*
X129035000Y-71807262D01*
X129035000Y-70992738D01*
X128876094Y-70193865D01*
X128564389Y-69441343D01*
X128111864Y-68764091D01*
X127535909Y-68188136D01*
X126858657Y-67735611D01*
X126106135Y-67423906D01*
X125307262Y-67265000D01*
X124492738Y-67265000D01*
X123693865Y-67423906D01*
X122941343Y-67735611D01*
X122264091Y-68188136D01*
X121688136Y-68764091D01*
X121235611Y-69441343D01*
X120923906Y-70193865D01*
X120765000Y-70992738D01*
X120685000Y-70992738D01*
X120685000Y-50685000D01*
X122529155Y-50685000D01*
X122473164Y-50714928D01*
G37*
%TD.AperFunction*%
M02*
