%TF.GenerationSoftware,KiCad,Pcbnew,5.1.9+dfsg1-1~bpo10+1*%
%TF.CreationDate,2022-01-08T18:21:18+08:00*%
%TF.ProjectId,MiniMult - Control Panel,4d696e69-4d75-46c7-9420-2d20436f6e74,rev?*%
%TF.SameCoordinates,Original*%
%TF.FileFunction,Legend,Bot*%
%TF.FilePolarity,Positive*%
%FSLAX46Y46*%
G04 Gerber Fmt 4.6, Leading zero omitted, Abs format (unit mm)*
G04 Created by KiCad (PCBNEW 5.1.9+dfsg1-1~bpo10+1) date 2022-01-08 18:21:18*
%MOMM*%
%LPD*%
G01*
G04 APERTURE LIST*
%ADD10C,0.150000*%
G04 APERTURE END LIST*
D10*
X148352380Y-150290476D02*
X147352380Y-150290476D01*
X147733333Y-150290476D02*
X147685714Y-150385714D01*
X147685714Y-150576190D01*
X147733333Y-150671428D01*
X147780952Y-150719047D01*
X147876190Y-150766666D01*
X148161904Y-150766666D01*
X148257142Y-150719047D01*
X148304761Y-150671428D01*
X148352380Y-150576190D01*
X148352380Y-150385714D01*
X148304761Y-150290476D01*
X148304761Y-151576190D02*
X148352380Y-151480952D01*
X148352380Y-151290476D01*
X148304761Y-151195238D01*
X148209523Y-151147619D01*
X147828571Y-151147619D01*
X147733333Y-151195238D01*
X147685714Y-151290476D01*
X147685714Y-151480952D01*
X147733333Y-151576190D01*
X147828571Y-151623809D01*
X147923809Y-151623809D01*
X148019047Y-151147619D01*
X147685714Y-152052380D02*
X148352380Y-152052380D01*
X147780952Y-152052380D02*
X147733333Y-152100000D01*
X147685714Y-152195238D01*
X147685714Y-152338095D01*
X147733333Y-152433333D01*
X147828571Y-152480952D01*
X148352380Y-152480952D01*
X147685714Y-152957142D02*
X148542857Y-152957142D01*
X148638095Y-152909523D01*
X148685714Y-152814285D01*
X148685714Y-152766666D01*
X147352380Y-152957142D02*
X147400000Y-152909523D01*
X147447619Y-152957142D01*
X147400000Y-153004761D01*
X147352380Y-152957142D01*
X147447619Y-152957142D01*
X148352380Y-153433333D02*
X147685714Y-153433333D01*
X147352380Y-153433333D02*
X147400000Y-153385714D01*
X147447619Y-153433333D01*
X147400000Y-153480952D01*
X147352380Y-153433333D01*
X147447619Y-153433333D01*
X148352380Y-154338095D02*
X147828571Y-154338095D01*
X147733333Y-154290476D01*
X147685714Y-154195238D01*
X147685714Y-154004761D01*
X147733333Y-153909523D01*
X148304761Y-154338095D02*
X148352380Y-154242857D01*
X148352380Y-154004761D01*
X148304761Y-153909523D01*
X148209523Y-153861904D01*
X148114285Y-153861904D01*
X148019047Y-153909523D01*
X147971428Y-154004761D01*
X147971428Y-154242857D01*
X147923809Y-154338095D01*
X148352380Y-154957142D02*
X148304761Y-154861904D01*
X148257142Y-154814285D01*
X148161904Y-154766666D01*
X147876190Y-154766666D01*
X147780952Y-154814285D01*
X147733333Y-154861904D01*
X147685714Y-154957142D01*
X147685714Y-155100000D01*
X147733333Y-155195238D01*
X147780952Y-155242857D01*
X147876190Y-155290476D01*
X148161904Y-155290476D01*
X148257142Y-155242857D01*
X148304761Y-155195238D01*
X148352380Y-155100000D01*
X148352380Y-154957142D01*
X148352380Y-155719047D02*
X147685714Y-155719047D01*
X147780952Y-155719047D02*
X147733333Y-155766666D01*
X147685714Y-155861904D01*
X147685714Y-156004761D01*
X147733333Y-156100000D01*
X147828571Y-156147619D01*
X148352380Y-156147619D01*
X147828571Y-156147619D02*
X147733333Y-156195238D01*
X147685714Y-156290476D01*
X147685714Y-156433333D01*
X147733333Y-156528571D01*
X147828571Y-156576190D01*
X148352380Y-156576190D01*
X148352380Y-157195238D02*
X148304761Y-157100000D01*
X148257142Y-157052380D01*
X148161904Y-157004761D01*
X147876190Y-157004761D01*
X147780952Y-157052380D01*
X147733333Y-157100000D01*
X147685714Y-157195238D01*
X147685714Y-157338095D01*
X147733333Y-157433333D01*
X147780952Y-157480952D01*
X147876190Y-157528571D01*
X148161904Y-157528571D01*
X148257142Y-157480952D01*
X148304761Y-157433333D01*
X148352380Y-157338095D01*
X148352380Y-157195238D01*
X148352380Y-158385714D02*
X147352380Y-158385714D01*
X148304761Y-158385714D02*
X148352380Y-158290476D01*
X148352380Y-158100000D01*
X148304761Y-158004761D01*
X148257142Y-157957142D01*
X148161904Y-157909523D01*
X147876190Y-157909523D01*
X147780952Y-157957142D01*
X147733333Y-158004761D01*
X147685714Y-158100000D01*
X147685714Y-158290476D01*
X147733333Y-158385714D01*
X147685714Y-159290476D02*
X148352380Y-159290476D01*
X147685714Y-158861904D02*
X148209523Y-158861904D01*
X148304761Y-158909523D01*
X148352380Y-159004761D01*
X148352380Y-159147619D01*
X148304761Y-159242857D01*
X148257142Y-159290476D01*
X148352380Y-159909523D02*
X148304761Y-159814285D01*
X148209523Y-159766666D01*
X147352380Y-159766666D01*
X148352380Y-160719047D02*
X147828571Y-160719047D01*
X147733333Y-160671428D01*
X147685714Y-160576190D01*
X147685714Y-160385714D01*
X147733333Y-160290476D01*
X148304761Y-160719047D02*
X148352380Y-160623809D01*
X148352380Y-160385714D01*
X148304761Y-160290476D01*
X148209523Y-160242857D01*
X148114285Y-160242857D01*
X148019047Y-160290476D01*
X147971428Y-160385714D01*
X147971428Y-160623809D01*
X147923809Y-160719047D01*
X148352380Y-161195238D02*
X147685714Y-161195238D01*
X147876190Y-161195238D02*
X147780952Y-161242857D01*
X147733333Y-161290476D01*
X147685714Y-161385714D01*
X147685714Y-161480952D01*
X148257142Y-161814285D02*
X148304761Y-161861904D01*
X148352380Y-161814285D01*
X148304761Y-161766666D01*
X148257142Y-161814285D01*
X148352380Y-161814285D01*
X148304761Y-162719047D02*
X148352380Y-162623809D01*
X148352380Y-162433333D01*
X148304761Y-162338095D01*
X148257142Y-162290476D01*
X148161904Y-162242857D01*
X147876190Y-162242857D01*
X147780952Y-162290476D01*
X147733333Y-162338095D01*
X147685714Y-162433333D01*
X147685714Y-162623809D01*
X147733333Y-162719047D01*
X148352380Y-163290476D02*
X148304761Y-163195238D01*
X148257142Y-163147619D01*
X148161904Y-163100000D01*
X147876190Y-163100000D01*
X147780952Y-163147619D01*
X147733333Y-163195238D01*
X147685714Y-163290476D01*
X147685714Y-163433333D01*
X147733333Y-163528571D01*
X147780952Y-163576190D01*
X147876190Y-163623809D01*
X148161904Y-163623809D01*
X148257142Y-163576190D01*
X148304761Y-163528571D01*
X148352380Y-163433333D01*
X148352380Y-163290476D01*
X148352380Y-164052380D02*
X147685714Y-164052380D01*
X147780952Y-164052380D02*
X147733333Y-164100000D01*
X147685714Y-164195238D01*
X147685714Y-164338095D01*
X147733333Y-164433333D01*
X147828571Y-164480952D01*
X148352380Y-164480952D01*
X147828571Y-164480952D02*
X147733333Y-164528571D01*
X147685714Y-164623809D01*
X147685714Y-164766666D01*
X147733333Y-164861904D01*
X147828571Y-164909523D01*
X148352380Y-164909523D01*
X146902380Y-150314285D02*
X145902380Y-150314285D01*
X146616666Y-150647619D01*
X145902380Y-150980952D01*
X146902380Y-150980952D01*
X146902380Y-151457142D02*
X146235714Y-151457142D01*
X145902380Y-151457142D02*
X145950000Y-151409523D01*
X145997619Y-151457142D01*
X145950000Y-151504761D01*
X145902380Y-151457142D01*
X145997619Y-151457142D01*
X146235714Y-151933333D02*
X146902380Y-151933333D01*
X146330952Y-151933333D02*
X146283333Y-151980952D01*
X146235714Y-152076190D01*
X146235714Y-152219047D01*
X146283333Y-152314285D01*
X146378571Y-152361904D01*
X146902380Y-152361904D01*
X146902380Y-152838095D02*
X146235714Y-152838095D01*
X145902380Y-152838095D02*
X145950000Y-152790476D01*
X145997619Y-152838095D01*
X145950000Y-152885714D01*
X145902380Y-152838095D01*
X145997619Y-152838095D01*
X146902380Y-153314285D02*
X145902380Y-153314285D01*
X146616666Y-153647619D01*
X145902380Y-153980952D01*
X146902380Y-153980952D01*
X146235714Y-154885714D02*
X146902380Y-154885714D01*
X146235714Y-154457142D02*
X146759523Y-154457142D01*
X146854761Y-154504761D01*
X146902380Y-154600000D01*
X146902380Y-154742857D01*
X146854761Y-154838095D01*
X146807142Y-154885714D01*
X146902380Y-155504761D02*
X146854761Y-155409523D01*
X146759523Y-155361904D01*
X145902380Y-155361904D01*
X146235714Y-155742857D02*
X146235714Y-156123809D01*
X145902380Y-155885714D02*
X146759523Y-155885714D01*
X146854761Y-155933333D01*
X146902380Y-156028571D01*
X146902380Y-156123809D01*
X146235714Y-157123809D02*
X146902380Y-157361904D01*
X146235714Y-157600000D01*
X146902380Y-158504761D02*
X146902380Y-157933333D01*
X146902380Y-158219047D02*
X145902380Y-158219047D01*
X146045238Y-158123809D01*
X146140476Y-158028571D01*
X146188095Y-157933333D01*
X146807142Y-158933333D02*
X146854761Y-158980952D01*
X146902380Y-158933333D01*
X146854761Y-158885714D01*
X146807142Y-158933333D01*
X146902380Y-158933333D01*
X145902380Y-159600000D02*
X145902380Y-159695238D01*
X145950000Y-159790476D01*
X145997619Y-159838095D01*
X146092857Y-159885714D01*
X146283333Y-159933333D01*
X146521428Y-159933333D01*
X146711904Y-159885714D01*
X146807142Y-159838095D01*
X146854761Y-159790476D01*
X146902380Y-159695238D01*
X146902380Y-159600000D01*
X146854761Y-159504761D01*
X146807142Y-159457142D01*
X146711904Y-159409523D01*
X146521428Y-159361904D01*
X146283333Y-159361904D01*
X146092857Y-159409523D01*
X145997619Y-159457142D01*
X145950000Y-159504761D01*
X145902380Y-159600000D01*
M02*
