%FSLAX45Y45*%
G04 Gerber Fmt 4.5, Leading zero omitted, Abs format (unit mm)*
G04 Created by KiCad (PCBNEW 5.1.9+dfsg1-1~bpo10+1) date 2022-01-08 18:21:17*
%MOMM*%
%LPD*%
G01*
G04 APERTURE LIST*
%TA.AperFunction,Profile*%
%ADD10C,0.050000*%
%TD*%
%ADD11C,0.200000*%
%ADD12C,0.300000*%
G04 APERTURE END LIST*
D10*
X13900000Y-16550000D02*
X13900000Y-6300000D01*
X14880000Y-16550000D02*
X13900000Y-16550000D01*
X14880000Y-6300000D02*
X14880000Y-16550000D01*
X13900000Y-6300000D02*
X14880000Y-6300000D01*
D11*
X14329000Y-6439000D02*
X14451000Y-6561000D01*
X14451000Y-6439000D02*
X14329000Y-6561000D01*
X14329000Y-7889000D02*
X14451000Y-8011000D01*
X14451000Y-7889000D02*
X14329000Y-8011000D01*
X14329000Y-9339000D02*
X14451000Y-9461000D01*
X14451000Y-9339000D02*
X14329000Y-9461000D01*
X14329000Y-10789000D02*
X14451000Y-10911000D01*
X14451000Y-10789000D02*
X14329000Y-10911000D01*
X14329000Y-12239000D02*
X14451000Y-12361000D01*
X14451000Y-12239000D02*
X14329000Y-12361000D01*
X14329000Y-13689000D02*
X14451000Y-13811000D01*
X14451000Y-13689000D02*
X14329000Y-13811000D01*
X14329000Y-15139000D02*
X14451000Y-15261000D01*
X14451000Y-15139000D02*
X14329000Y-15261000D01*
X14461000Y-6810000D02*
G75*
G03*
X14461000Y-6810000I-71000J0D01*
G01*
X14461000Y-8260000D02*
G75*
G03*
X14461000Y-8260000I-71000J0D01*
G01*
X14461000Y-9710000D02*
G75*
G03*
X14461000Y-9710000I-71000J0D01*
G01*
X14461000Y-11160000D02*
G75*
G03*
X14461000Y-11160000I-71000J0D01*
G01*
X14461000Y-12610000D02*
G75*
G03*
X14461000Y-12610000I-71000J0D01*
G01*
X14461000Y-14060000D02*
G75*
G03*
X14461000Y-14060000I-71000J0D01*
G01*
X14461000Y-15510000D02*
G75*
G03*
X14461000Y-15510000I-71000J0D01*
G01*
X14390000Y-7568500D02*
X14390000Y-7711500D01*
X14318500Y-7640000D02*
X14461500Y-7640000D01*
X14390000Y-9018500D02*
X14390000Y-9161500D01*
X14318500Y-9090000D02*
X14461500Y-9090000D01*
X14390000Y-10468500D02*
X14390000Y-10611500D01*
X14318500Y-10540000D02*
X14461500Y-10540000D01*
X14390000Y-11918500D02*
X14390000Y-12061500D01*
X14318500Y-11990000D02*
X14461500Y-11990000D01*
X14390000Y-13368500D02*
X14390000Y-13511500D01*
X14318500Y-13440000D02*
X14461500Y-13440000D01*
X14390000Y-14818500D02*
X14390000Y-14961500D01*
X14318500Y-14890000D02*
X14461500Y-14890000D01*
X14390000Y-16268500D02*
X14390000Y-16411500D01*
X14318500Y-16340000D02*
X14461500Y-16340000D01*
D12*
X14183928Y-17018214D02*
X14183928Y-16718214D01*
X14255357Y-16718214D01*
X14298214Y-16732500D01*
X14326786Y-16761071D01*
X14341071Y-16789643D01*
X14355357Y-16846786D01*
X14355357Y-16889643D01*
X14341071Y-16946786D01*
X14326786Y-16975357D01*
X14298214Y-17003929D01*
X14255357Y-17018214D01*
X14183928Y-17018214D01*
X14483928Y-17018214D02*
X14483928Y-16818214D01*
X14483928Y-16875357D02*
X14498214Y-16846786D01*
X14512500Y-16832500D01*
X14541071Y-16818214D01*
X14569643Y-16818214D01*
X14669643Y-17018214D02*
X14669643Y-16818214D01*
X14669643Y-16718214D02*
X14655357Y-16732500D01*
X14669643Y-16746786D01*
X14683928Y-16732500D01*
X14669643Y-16718214D01*
X14669643Y-16746786D01*
X14855357Y-17018214D02*
X14826786Y-17003929D01*
X14812500Y-16975357D01*
X14812500Y-16718214D01*
X15012500Y-17018214D02*
X14983928Y-17003929D01*
X14969643Y-16975357D01*
X14969643Y-16718214D01*
X15355357Y-17018214D02*
X15355357Y-16718214D01*
X15455357Y-16932500D01*
X15555357Y-16718214D01*
X15555357Y-17018214D01*
X15826786Y-17018214D02*
X15826786Y-16861072D01*
X15812500Y-16832500D01*
X15783928Y-16818214D01*
X15726786Y-16818214D01*
X15698214Y-16832500D01*
X15826786Y-17003929D02*
X15798214Y-17018214D01*
X15726786Y-17018214D01*
X15698214Y-17003929D01*
X15683928Y-16975357D01*
X15683928Y-16946786D01*
X15698214Y-16918214D01*
X15726786Y-16903929D01*
X15798214Y-16903929D01*
X15826786Y-16889643D01*
X15969643Y-16818214D02*
X15969643Y-17118214D01*
X15969643Y-16832500D02*
X15998214Y-16818214D01*
X16055357Y-16818214D01*
X16083928Y-16832500D01*
X16098214Y-16846786D01*
X16112500Y-16875357D01*
X16112500Y-16961072D01*
X16098214Y-16989643D01*
X16083928Y-17003929D01*
X16055357Y-17018214D01*
X15998214Y-17018214D01*
X15969643Y-17003929D01*
X16241071Y-16989643D02*
X16255357Y-17003929D01*
X16241071Y-17018214D01*
X16226786Y-17003929D01*
X16241071Y-16989643D01*
X16241071Y-17018214D01*
X16241071Y-16832500D02*
X16255357Y-16846786D01*
X16241071Y-16861072D01*
X16226786Y-16846786D01*
X16241071Y-16832500D01*
X16241071Y-16861072D01*
X13775500Y-17451500D02*
X13897500Y-17573500D01*
X13897500Y-17451500D02*
X13775500Y-17573500D01*
X14341071Y-17648214D02*
X14169643Y-17648214D01*
X14255357Y-17648214D02*
X14255357Y-17348214D01*
X14226786Y-17391072D01*
X14198214Y-17419643D01*
X14169643Y-17433929D01*
X14469643Y-17619643D02*
X14483928Y-17633929D01*
X14469643Y-17648214D01*
X14455357Y-17633929D01*
X14469643Y-17619643D01*
X14469643Y-17648214D01*
X14598214Y-17376786D02*
X14612500Y-17362500D01*
X14641071Y-17348214D01*
X14712500Y-17348214D01*
X14741071Y-17362500D01*
X14755357Y-17376786D01*
X14769643Y-17405357D01*
X14769643Y-17433929D01*
X14755357Y-17476786D01*
X14583928Y-17648214D01*
X14769643Y-17648214D01*
X14883928Y-17376786D02*
X14898214Y-17362500D01*
X14926786Y-17348214D01*
X14998214Y-17348214D01*
X15026786Y-17362500D01*
X15041071Y-17376786D01*
X15055357Y-17405357D01*
X15055357Y-17433929D01*
X15041071Y-17476786D01*
X14869643Y-17648214D01*
X15055357Y-17648214D01*
X15183928Y-17648214D02*
X15183928Y-17448214D01*
X15183928Y-17476786D02*
X15198214Y-17462500D01*
X15226786Y-17448214D01*
X15269643Y-17448214D01*
X15298214Y-17462500D01*
X15312500Y-17491072D01*
X15312500Y-17648214D01*
X15312500Y-17491072D02*
X15326786Y-17462500D01*
X15355357Y-17448214D01*
X15398214Y-17448214D01*
X15426786Y-17462500D01*
X15441071Y-17491072D01*
X15441071Y-17648214D01*
X15583928Y-17648214D02*
X15583928Y-17448214D01*
X15583928Y-17476786D02*
X15598214Y-17462500D01*
X15626786Y-17448214D01*
X15669643Y-17448214D01*
X15698214Y-17462500D01*
X15712500Y-17491072D01*
X15712500Y-17648214D01*
X15712500Y-17491072D02*
X15726786Y-17462500D01*
X15755357Y-17448214D01*
X15798214Y-17448214D01*
X15826786Y-17462500D01*
X15841071Y-17491072D01*
X15841071Y-17648214D01*
X16426786Y-17333929D02*
X16169643Y-17719643D01*
X16812500Y-17348214D02*
X16841071Y-17348214D01*
X16869643Y-17362500D01*
X16883928Y-17376786D01*
X16898214Y-17405357D01*
X16912500Y-17462500D01*
X16912500Y-17533929D01*
X16898214Y-17591072D01*
X16883928Y-17619643D01*
X16869643Y-17633929D01*
X16841071Y-17648214D01*
X16812500Y-17648214D01*
X16783928Y-17633929D01*
X16769643Y-17619643D01*
X16755357Y-17591072D01*
X16741071Y-17533929D01*
X16741071Y-17462500D01*
X16755357Y-17405357D01*
X16769643Y-17376786D01*
X16783928Y-17362500D01*
X16812500Y-17348214D01*
X17041071Y-17619643D02*
X17055357Y-17633929D01*
X17041071Y-17648214D01*
X17026786Y-17633929D01*
X17041071Y-17619643D01*
X17041071Y-17648214D01*
X17241071Y-17348214D02*
X17269643Y-17348214D01*
X17298214Y-17362500D01*
X17312500Y-17376786D01*
X17326786Y-17405357D01*
X17341071Y-17462500D01*
X17341071Y-17533929D01*
X17326786Y-17591072D01*
X17312500Y-17619643D01*
X17298214Y-17633929D01*
X17269643Y-17648214D01*
X17241071Y-17648214D01*
X17212500Y-17633929D01*
X17198214Y-17619643D01*
X17183928Y-17591072D01*
X17169643Y-17533929D01*
X17169643Y-17462500D01*
X17183928Y-17405357D01*
X17198214Y-17376786D01*
X17212500Y-17362500D01*
X17241071Y-17348214D01*
X17598214Y-17448214D02*
X17598214Y-17648214D01*
X17526786Y-17333929D02*
X17455357Y-17548214D01*
X17641071Y-17548214D01*
X17798214Y-17476786D02*
X17769643Y-17462500D01*
X17755357Y-17448214D01*
X17741071Y-17419643D01*
X17741071Y-17405357D01*
X17755357Y-17376786D01*
X17769643Y-17362500D01*
X17798214Y-17348214D01*
X17855357Y-17348214D01*
X17883928Y-17362500D01*
X17898214Y-17376786D01*
X17912500Y-17405357D01*
X17912500Y-17419643D01*
X17898214Y-17448214D01*
X17883928Y-17462500D01*
X17855357Y-17476786D01*
X17798214Y-17476786D01*
X17769643Y-17491072D01*
X17755357Y-17505357D01*
X17741071Y-17533929D01*
X17741071Y-17591072D01*
X17755357Y-17619643D01*
X17769643Y-17633929D01*
X17798214Y-17648214D01*
X17855357Y-17648214D01*
X17883928Y-17633929D01*
X17898214Y-17619643D01*
X17912500Y-17591072D01*
X17912500Y-17533929D01*
X17898214Y-17505357D01*
X17883928Y-17491072D01*
X17855357Y-17476786D01*
X18026786Y-17348214D02*
X18026786Y-17405357D01*
X18141071Y-17348214D02*
X18141071Y-17405357D01*
X18583928Y-17762500D02*
X18569643Y-17748214D01*
X18541071Y-17705357D01*
X18526786Y-17676786D01*
X18512500Y-17633929D01*
X18498214Y-17562500D01*
X18498214Y-17505357D01*
X18512500Y-17433929D01*
X18526786Y-17391072D01*
X18541071Y-17362500D01*
X18569643Y-17319643D01*
X18583928Y-17305357D01*
X18669643Y-17348214D02*
X18869643Y-17348214D01*
X18741071Y-17648214D01*
X19212500Y-17648214D02*
X19212500Y-17348214D01*
X19341071Y-17648214D02*
X19341071Y-17491072D01*
X19326786Y-17462500D01*
X19298214Y-17448214D01*
X19255357Y-17448214D01*
X19226786Y-17462500D01*
X19212500Y-17476786D01*
X19526786Y-17648214D02*
X19498214Y-17633929D01*
X19483928Y-17619643D01*
X19469643Y-17591072D01*
X19469643Y-17505357D01*
X19483928Y-17476786D01*
X19498214Y-17462500D01*
X19526786Y-17448214D01*
X19569643Y-17448214D01*
X19598214Y-17462500D01*
X19612500Y-17476786D01*
X19626786Y-17505357D01*
X19626786Y-17591072D01*
X19612500Y-17619643D01*
X19598214Y-17633929D01*
X19569643Y-17648214D01*
X19526786Y-17648214D01*
X19798214Y-17648214D02*
X19769643Y-17633929D01*
X19755357Y-17605357D01*
X19755357Y-17348214D01*
X20026786Y-17633929D02*
X19998214Y-17648214D01*
X19941071Y-17648214D01*
X19912500Y-17633929D01*
X19898214Y-17605357D01*
X19898214Y-17491072D01*
X19912500Y-17462500D01*
X19941071Y-17448214D01*
X19998214Y-17448214D01*
X20026786Y-17462500D01*
X20041071Y-17491072D01*
X20041071Y-17519643D01*
X19898214Y-17548214D01*
X20155357Y-17633929D02*
X20183928Y-17648214D01*
X20241071Y-17648214D01*
X20269643Y-17633929D01*
X20283928Y-17605357D01*
X20283928Y-17591072D01*
X20269643Y-17562500D01*
X20241071Y-17548214D01*
X20198214Y-17548214D01*
X20169643Y-17533929D01*
X20155357Y-17505357D01*
X20155357Y-17491072D01*
X20169643Y-17462500D01*
X20198214Y-17448214D01*
X20241071Y-17448214D01*
X20269643Y-17462500D01*
X20383928Y-17762500D02*
X20398214Y-17748214D01*
X20426786Y-17705357D01*
X20441071Y-17676786D01*
X20455357Y-17633929D01*
X20469643Y-17562500D01*
X20469643Y-17505357D01*
X20455357Y-17433929D01*
X20441071Y-17391072D01*
X20426786Y-17362500D01*
X20398214Y-17319643D01*
X20383928Y-17305357D01*
X13897500Y-17908500D02*
G75*
G03*
X13897500Y-17908500I-71000J0D01*
G01*
X14341071Y-18044214D02*
X14169643Y-18044214D01*
X14255357Y-18044214D02*
X14255357Y-17744214D01*
X14226786Y-17787072D01*
X14198214Y-17815643D01*
X14169643Y-17829929D01*
X14469643Y-18015643D02*
X14483928Y-18029929D01*
X14469643Y-18044214D01*
X14455357Y-18029929D01*
X14469643Y-18015643D01*
X14469643Y-18044214D01*
X14741071Y-17844214D02*
X14741071Y-18044214D01*
X14669643Y-17729929D02*
X14598214Y-17944214D01*
X14783928Y-17944214D01*
X14883928Y-17772786D02*
X14898214Y-17758500D01*
X14926786Y-17744214D01*
X14998214Y-17744214D01*
X15026786Y-17758500D01*
X15041071Y-17772786D01*
X15055357Y-17801357D01*
X15055357Y-17829929D01*
X15041071Y-17872786D01*
X14869643Y-18044214D01*
X15055357Y-18044214D01*
X15183928Y-18044214D02*
X15183928Y-17844214D01*
X15183928Y-17872786D02*
X15198214Y-17858500D01*
X15226786Y-17844214D01*
X15269643Y-17844214D01*
X15298214Y-17858500D01*
X15312500Y-17887072D01*
X15312500Y-18044214D01*
X15312500Y-17887072D02*
X15326786Y-17858500D01*
X15355357Y-17844214D01*
X15398214Y-17844214D01*
X15426786Y-17858500D01*
X15441071Y-17887072D01*
X15441071Y-18044214D01*
X15583928Y-18044214D02*
X15583928Y-17844214D01*
X15583928Y-17872786D02*
X15598214Y-17858500D01*
X15626786Y-17844214D01*
X15669643Y-17844214D01*
X15698214Y-17858500D01*
X15712500Y-17887072D01*
X15712500Y-18044214D01*
X15712500Y-17887072D02*
X15726786Y-17858500D01*
X15755357Y-17844214D01*
X15798214Y-17844214D01*
X15826786Y-17858500D01*
X15841071Y-17887072D01*
X15841071Y-18044214D01*
X16426786Y-17729929D02*
X16169643Y-18115643D01*
X16812500Y-17744214D02*
X16841071Y-17744214D01*
X16869643Y-17758500D01*
X16883928Y-17772786D01*
X16898214Y-17801357D01*
X16912500Y-17858500D01*
X16912500Y-17929929D01*
X16898214Y-17987072D01*
X16883928Y-18015643D01*
X16869643Y-18029929D01*
X16841071Y-18044214D01*
X16812500Y-18044214D01*
X16783928Y-18029929D01*
X16769643Y-18015643D01*
X16755357Y-17987072D01*
X16741071Y-17929929D01*
X16741071Y-17858500D01*
X16755357Y-17801357D01*
X16769643Y-17772786D01*
X16783928Y-17758500D01*
X16812500Y-17744214D01*
X17041071Y-18015643D02*
X17055357Y-18029929D01*
X17041071Y-18044214D01*
X17026786Y-18029929D01*
X17041071Y-18015643D01*
X17041071Y-18044214D01*
X17241071Y-17744214D02*
X17269643Y-17744214D01*
X17298214Y-17758500D01*
X17312500Y-17772786D01*
X17326786Y-17801357D01*
X17341071Y-17858500D01*
X17341071Y-17929929D01*
X17326786Y-17987072D01*
X17312500Y-18015643D01*
X17298214Y-18029929D01*
X17269643Y-18044214D01*
X17241071Y-18044214D01*
X17212500Y-18029929D01*
X17198214Y-18015643D01*
X17183928Y-17987072D01*
X17169643Y-17929929D01*
X17169643Y-17858500D01*
X17183928Y-17801357D01*
X17198214Y-17772786D01*
X17212500Y-17758500D01*
X17241071Y-17744214D01*
X17612500Y-17744214D02*
X17469643Y-17744214D01*
X17455357Y-17887072D01*
X17469643Y-17872786D01*
X17498214Y-17858500D01*
X17569643Y-17858500D01*
X17598214Y-17872786D01*
X17612500Y-17887072D01*
X17626786Y-17915643D01*
X17626786Y-17987072D01*
X17612500Y-18015643D01*
X17598214Y-18029929D01*
X17569643Y-18044214D01*
X17498214Y-18044214D01*
X17469643Y-18029929D01*
X17455357Y-18015643D01*
X17883928Y-17744214D02*
X17826786Y-17744214D01*
X17798214Y-17758500D01*
X17783928Y-17772786D01*
X17755357Y-17815643D01*
X17741071Y-17872786D01*
X17741071Y-17987072D01*
X17755357Y-18015643D01*
X17769643Y-18029929D01*
X17798214Y-18044214D01*
X17855357Y-18044214D01*
X17883928Y-18029929D01*
X17898214Y-18015643D01*
X17912500Y-17987072D01*
X17912500Y-17915643D01*
X17898214Y-17887072D01*
X17883928Y-17872786D01*
X17855357Y-17858500D01*
X17798214Y-17858500D01*
X17769643Y-17872786D01*
X17755357Y-17887072D01*
X17741071Y-17915643D01*
X18026786Y-17744214D02*
X18026786Y-17801357D01*
X18141071Y-17744214D02*
X18141071Y-17801357D01*
X18583928Y-18158500D02*
X18569643Y-18144214D01*
X18541071Y-18101357D01*
X18526786Y-18072786D01*
X18512500Y-18029929D01*
X18498214Y-17958500D01*
X18498214Y-17901357D01*
X18512500Y-17829929D01*
X18526786Y-17787072D01*
X18541071Y-17758500D01*
X18569643Y-17715643D01*
X18583928Y-17701357D01*
X18669643Y-17744214D02*
X18869643Y-17744214D01*
X18741071Y-18044214D01*
X19212500Y-18044214D02*
X19212500Y-17744214D01*
X19341071Y-18044214D02*
X19341071Y-17887072D01*
X19326786Y-17858500D01*
X19298214Y-17844214D01*
X19255357Y-17844214D01*
X19226786Y-17858500D01*
X19212500Y-17872786D01*
X19526786Y-18044214D02*
X19498214Y-18029929D01*
X19483928Y-18015643D01*
X19469643Y-17987072D01*
X19469643Y-17901357D01*
X19483928Y-17872786D01*
X19498214Y-17858500D01*
X19526786Y-17844214D01*
X19569643Y-17844214D01*
X19598214Y-17858500D01*
X19612500Y-17872786D01*
X19626786Y-17901357D01*
X19626786Y-17987072D01*
X19612500Y-18015643D01*
X19598214Y-18029929D01*
X19569643Y-18044214D01*
X19526786Y-18044214D01*
X19798214Y-18044214D02*
X19769643Y-18029929D01*
X19755357Y-18001357D01*
X19755357Y-17744214D01*
X20026786Y-18029929D02*
X19998214Y-18044214D01*
X19941071Y-18044214D01*
X19912500Y-18029929D01*
X19898214Y-18001357D01*
X19898214Y-17887072D01*
X19912500Y-17858500D01*
X19941071Y-17844214D01*
X19998214Y-17844214D01*
X20026786Y-17858500D01*
X20041071Y-17887072D01*
X20041071Y-17915643D01*
X19898214Y-17944214D01*
X20155357Y-18029929D02*
X20183928Y-18044214D01*
X20241071Y-18044214D01*
X20269643Y-18029929D01*
X20283928Y-18001357D01*
X20283928Y-17987072D01*
X20269643Y-17958500D01*
X20241071Y-17944214D01*
X20198214Y-17944214D01*
X20169643Y-17929929D01*
X20155357Y-17901357D01*
X20155357Y-17887072D01*
X20169643Y-17858500D01*
X20198214Y-17844214D01*
X20241071Y-17844214D01*
X20269643Y-17858500D01*
X20383928Y-18158500D02*
X20398214Y-18144214D01*
X20426786Y-18101357D01*
X20441071Y-18072786D01*
X20455357Y-18029929D01*
X20469643Y-17958500D01*
X20469643Y-17901357D01*
X20455357Y-17829929D01*
X20441071Y-17787072D01*
X20426786Y-17758500D01*
X20398214Y-17715643D01*
X20383928Y-17701357D01*
X13826000Y-18233000D02*
X13826000Y-18376000D01*
X13754500Y-18304500D02*
X13897500Y-18304500D01*
X14341071Y-18440214D02*
X14169643Y-18440214D01*
X14255357Y-18440214D02*
X14255357Y-18140214D01*
X14226786Y-18183072D01*
X14198214Y-18211643D01*
X14169643Y-18225929D01*
X14469643Y-18411643D02*
X14483928Y-18425929D01*
X14469643Y-18440214D01*
X14455357Y-18425929D01*
X14469643Y-18411643D01*
X14469643Y-18440214D01*
X14741071Y-18240214D02*
X14741071Y-18440214D01*
X14669643Y-18125929D02*
X14598214Y-18340214D01*
X14783928Y-18340214D01*
X14869643Y-18140214D02*
X15055357Y-18140214D01*
X14955357Y-18254500D01*
X14998214Y-18254500D01*
X15026786Y-18268786D01*
X15041071Y-18283072D01*
X15055357Y-18311643D01*
X15055357Y-18383072D01*
X15041071Y-18411643D01*
X15026786Y-18425929D01*
X14998214Y-18440214D01*
X14912500Y-18440214D01*
X14883928Y-18425929D01*
X14869643Y-18411643D01*
X15183928Y-18440214D02*
X15183928Y-18240214D01*
X15183928Y-18268786D02*
X15198214Y-18254500D01*
X15226786Y-18240214D01*
X15269643Y-18240214D01*
X15298214Y-18254500D01*
X15312500Y-18283072D01*
X15312500Y-18440214D01*
X15312500Y-18283072D02*
X15326786Y-18254500D01*
X15355357Y-18240214D01*
X15398214Y-18240214D01*
X15426786Y-18254500D01*
X15441071Y-18283072D01*
X15441071Y-18440214D01*
X15583928Y-18440214D02*
X15583928Y-18240214D01*
X15583928Y-18268786D02*
X15598214Y-18254500D01*
X15626786Y-18240214D01*
X15669643Y-18240214D01*
X15698214Y-18254500D01*
X15712500Y-18283072D01*
X15712500Y-18440214D01*
X15712500Y-18283072D02*
X15726786Y-18254500D01*
X15755357Y-18240214D01*
X15798214Y-18240214D01*
X15826786Y-18254500D01*
X15841071Y-18283072D01*
X15841071Y-18440214D01*
X16426786Y-18125929D02*
X16169643Y-18511643D01*
X16812500Y-18140214D02*
X16841071Y-18140214D01*
X16869643Y-18154500D01*
X16883928Y-18168786D01*
X16898214Y-18197357D01*
X16912500Y-18254500D01*
X16912500Y-18325929D01*
X16898214Y-18383072D01*
X16883928Y-18411643D01*
X16869643Y-18425929D01*
X16841071Y-18440214D01*
X16812500Y-18440214D01*
X16783928Y-18425929D01*
X16769643Y-18411643D01*
X16755357Y-18383072D01*
X16741071Y-18325929D01*
X16741071Y-18254500D01*
X16755357Y-18197357D01*
X16769643Y-18168786D01*
X16783928Y-18154500D01*
X16812500Y-18140214D01*
X17041071Y-18411643D02*
X17055357Y-18425929D01*
X17041071Y-18440214D01*
X17026786Y-18425929D01*
X17041071Y-18411643D01*
X17041071Y-18440214D01*
X17241071Y-18140214D02*
X17269643Y-18140214D01*
X17298214Y-18154500D01*
X17312500Y-18168786D01*
X17326786Y-18197357D01*
X17341071Y-18254500D01*
X17341071Y-18325929D01*
X17326786Y-18383072D01*
X17312500Y-18411643D01*
X17298214Y-18425929D01*
X17269643Y-18440214D01*
X17241071Y-18440214D01*
X17212500Y-18425929D01*
X17198214Y-18411643D01*
X17183928Y-18383072D01*
X17169643Y-18325929D01*
X17169643Y-18254500D01*
X17183928Y-18197357D01*
X17198214Y-18168786D01*
X17212500Y-18154500D01*
X17241071Y-18140214D01*
X17612500Y-18140214D02*
X17469643Y-18140214D01*
X17455357Y-18283072D01*
X17469643Y-18268786D01*
X17498214Y-18254500D01*
X17569643Y-18254500D01*
X17598214Y-18268786D01*
X17612500Y-18283072D01*
X17626786Y-18311643D01*
X17626786Y-18383072D01*
X17612500Y-18411643D01*
X17598214Y-18425929D01*
X17569643Y-18440214D01*
X17498214Y-18440214D01*
X17469643Y-18425929D01*
X17455357Y-18411643D01*
X17883928Y-18140214D02*
X17826786Y-18140214D01*
X17798214Y-18154500D01*
X17783928Y-18168786D01*
X17755357Y-18211643D01*
X17741071Y-18268786D01*
X17741071Y-18383072D01*
X17755357Y-18411643D01*
X17769643Y-18425929D01*
X17798214Y-18440214D01*
X17855357Y-18440214D01*
X17883928Y-18425929D01*
X17898214Y-18411643D01*
X17912500Y-18383072D01*
X17912500Y-18311643D01*
X17898214Y-18283072D01*
X17883928Y-18268786D01*
X17855357Y-18254500D01*
X17798214Y-18254500D01*
X17769643Y-18268786D01*
X17755357Y-18283072D01*
X17741071Y-18311643D01*
X18026786Y-18140214D02*
X18026786Y-18197357D01*
X18141071Y-18140214D02*
X18141071Y-18197357D01*
X18583928Y-18554500D02*
X18569643Y-18540214D01*
X18541071Y-18497357D01*
X18526786Y-18468786D01*
X18512500Y-18425929D01*
X18498214Y-18354500D01*
X18498214Y-18297357D01*
X18512500Y-18225929D01*
X18526786Y-18183072D01*
X18541071Y-18154500D01*
X18569643Y-18111643D01*
X18583928Y-18097357D01*
X18669643Y-18140214D02*
X18869643Y-18140214D01*
X18741071Y-18440214D01*
X19212500Y-18440214D02*
X19212500Y-18140214D01*
X19341071Y-18440214D02*
X19341071Y-18283072D01*
X19326786Y-18254500D01*
X19298214Y-18240214D01*
X19255357Y-18240214D01*
X19226786Y-18254500D01*
X19212500Y-18268786D01*
X19526786Y-18440214D02*
X19498214Y-18425929D01*
X19483928Y-18411643D01*
X19469643Y-18383072D01*
X19469643Y-18297357D01*
X19483928Y-18268786D01*
X19498214Y-18254500D01*
X19526786Y-18240214D01*
X19569643Y-18240214D01*
X19598214Y-18254500D01*
X19612500Y-18268786D01*
X19626786Y-18297357D01*
X19626786Y-18383072D01*
X19612500Y-18411643D01*
X19598214Y-18425929D01*
X19569643Y-18440214D01*
X19526786Y-18440214D01*
X19798214Y-18440214D02*
X19769643Y-18425929D01*
X19755357Y-18397357D01*
X19755357Y-18140214D01*
X20026786Y-18425929D02*
X19998214Y-18440214D01*
X19941071Y-18440214D01*
X19912500Y-18425929D01*
X19898214Y-18397357D01*
X19898214Y-18283072D01*
X19912500Y-18254500D01*
X19941071Y-18240214D01*
X19998214Y-18240214D01*
X20026786Y-18254500D01*
X20041071Y-18283072D01*
X20041071Y-18311643D01*
X19898214Y-18340214D01*
X20155357Y-18425929D02*
X20183928Y-18440214D01*
X20241071Y-18440214D01*
X20269643Y-18425929D01*
X20283928Y-18397357D01*
X20283928Y-18383072D01*
X20269643Y-18354500D01*
X20241071Y-18340214D01*
X20198214Y-18340214D01*
X20169643Y-18325929D01*
X20155357Y-18297357D01*
X20155357Y-18283072D01*
X20169643Y-18254500D01*
X20198214Y-18240214D01*
X20241071Y-18240214D01*
X20269643Y-18254500D01*
X20383928Y-18554500D02*
X20398214Y-18540214D01*
X20426786Y-18497357D01*
X20441071Y-18468786D01*
X20455357Y-18425929D01*
X20469643Y-18354500D01*
X20469643Y-18297357D01*
X20455357Y-18225929D01*
X20441071Y-18183072D01*
X20426786Y-18154500D01*
X20398214Y-18111643D01*
X20383928Y-18097357D01*
M02*
